<?xml version="1.0" encoding="UTF-8"?>
<!--Generator: Apple Native CoreSVG 149-->
<!DOCTYPE svg
PUBLIC "-//W3C//DTD SVG 1.1//EN"
       "http://www.w3.org/Graphics/SVG/1.1/DTD/svg11.dtd">
<svg version="1.1" xmlns="http://www.w3.org/2000/svg" xmlns:xlink="http://www.w3.org/1999/xlink" width="3300" height="2200">
 <!--glyph: "uni100B44.medium", point size: 100.000000, font version: "Version 16.0d18e1", template writer version: "8"-->
 <g id="Notes">
  <rect height="2200" id="artboard" style="fill:white;opacity:1" width="3300" x="0" y="0"/>
  <line id="" style="fill:none;stroke:black;opacity:1;stroke-width:0.5;" x1="263" x2="3036" y1="292" y2="292"/>
  <text style="stroke:none;fill:black;font-family:-apple-system,&quot;SF Pro Display&quot;,&quot;SF Pro Text&quot;,Helvetica,sans-serif;font-weight:bold;" transform="matrix(1 0 0 1 263 322)">Weight/Scale Variations</text>
  <text style="stroke:none;fill:black;font-family:-apple-system,&quot;SF Pro Display&quot;,&quot;SF Pro Text&quot;,Helvetica,sans-serif;text-anchor:middle;" transform="matrix(1 0 0 1 559.711 322)">Ultralight</text>
  <text style="stroke:none;fill:black;font-family:-apple-system,&quot;SF Pro Display&quot;,&quot;SF Pro Text&quot;,Helvetica,sans-serif;text-anchor:middle;" transform="matrix(1 0 0 1 856.422 322)">Thin</text>
  <text style="stroke:none;fill:black;font-family:-apple-system,&quot;SF Pro Display&quot;,&quot;SF Pro Text&quot;,Helvetica,sans-serif;text-anchor:middle;" transform="matrix(1 0 0 1 1153.13 322)">Light</text>
  <text style="stroke:none;fill:black;font-family:-apple-system,&quot;SF Pro Display&quot;,&quot;SF Pro Text&quot;,Helvetica,sans-serif;text-anchor:middle;" transform="matrix(1 0 0 1 1449.84 322)">Regular</text>
  <text style="stroke:none;fill:black;font-family:-apple-system,&quot;SF Pro Display&quot;,&quot;SF Pro Text&quot;,Helvetica,sans-serif;text-anchor:middle;" transform="matrix(1 0 0 1 1746.56 322)">Medium</text>
  <text style="stroke:none;fill:black;font-family:-apple-system,&quot;SF Pro Display&quot;,&quot;SF Pro Text&quot;,Helvetica,sans-serif;text-anchor:middle;" transform="matrix(1 0 0 1 2043.27 322)">Semibold</text>
  <text style="stroke:none;fill:black;font-family:-apple-system,&quot;SF Pro Display&quot;,&quot;SF Pro Text&quot;,Helvetica,sans-serif;text-anchor:middle;" transform="matrix(1 0 0 1 2339.98 322)">Bold</text>
  <text style="stroke:none;fill:black;font-family:-apple-system,&quot;SF Pro Display&quot;,&quot;SF Pro Text&quot;,Helvetica,sans-serif;text-anchor:middle;" transform="matrix(1 0 0 1 2636.69 322)">Heavy</text>
  <text style="stroke:none;fill:black;font-family:-apple-system,&quot;SF Pro Display&quot;,&quot;SF Pro Text&quot;,Helvetica,sans-serif;text-anchor:middle;" transform="matrix(1 0 0 1 2933.4 322)">Black</text>
  <line id="" style="fill:none;stroke:black;opacity:1;stroke-width:0.5;" x1="263" x2="3036" y1="1903" y2="1903"/>
  <g id="" transform="matrix(1 0 0 1 263 1933)">
   <path d="M9.24805 0.830078C13.5547 0.830078 17.1387-2.74414 17.1387-7.05078C17.1387-11.3574 13.5449-14.9316 9.23828-14.9316C4.94141-14.9316 1.36719-11.3574 1.36719-7.05078C1.36719-2.74414 4.95117 0.830078 9.24805 0.830078ZM9.24805-0.654297C5.70312-0.654297 2.87109-3.49609 2.87109-7.05078C2.87109-10.6055 5.69336-13.4473 9.23828-13.4473C12.793-13.4473 15.6348-10.6055 15.6445-7.05078C15.6543-3.49609 12.8027-0.654297 9.24805-0.654297ZM6.39648-6.31836L8.50586-6.31836L8.50586-4.19922C8.50586-3.75977 8.79883-3.45703 9.22852-3.45703C9.67773-3.45703 9.9707-3.75977 9.9707-4.19922L9.9707-6.31836L12.0996-6.31836C12.5391-6.31836 12.8418-6.61133 12.8418-7.04102C12.8418-7.48047 12.5391-7.7832 12.0996-7.7832L9.9707-7.7832L9.9707-9.89258C9.9707-10.3418 9.67773-10.6445 9.22852-10.6445C8.79883-10.6445 8.50586-10.3418 8.50586-9.89258L8.50586-7.7832L6.39648-7.7832C5.94727-7.7832 5.64453-7.48047 5.64453-7.04102C5.64453-6.61133 5.94727-6.31836 6.39648-6.31836Z"/>
  </g>
  <g id="" transform="matrix(1 0 0 1 281.506 1933)">
   <path d="M11.709 2.91016C17.1582 2.91016 21.6699-1.61133 21.6699-7.05078C21.6699-12.5 17.1484-17.0117 11.6992-17.0117C6.25977-17.0117 1.74805-12.5 1.74805-7.05078C1.74805-1.61133 6.26953 2.91016 11.709 2.91016ZM11.709 1.25C7.09961 1.25 3.41797-2.44141 3.41797-7.05078C3.41797-11.6602 7.08984-15.3516 11.6992-15.3516C16.3086-15.3516 20-11.6602 20.0098-7.05078C20.0195-2.44141 16.3184 1.25 11.709 1.25ZM7.98828-6.23047L10.8789-6.23047L10.8789-3.32031C10.8789-2.83203 11.2109-2.5 11.6895-2.5C12.1777-2.5 12.5195-2.83203 12.5195-3.32031L12.5195-6.23047L15.4297-6.23047C15.918-6.23047 16.25-6.5625 16.25-7.04102C16.25-7.5293 15.918-7.87109 15.4297-7.87109L12.5195-7.87109L12.5195-10.7617C12.5195-11.2695 12.1777-11.6016 11.6895-11.6016C11.2109-11.6016 10.8789-11.2598 10.8789-10.7617L10.8789-7.87109L7.98828-7.87109C7.48047-7.87109 7.14844-7.5293 7.14844-7.04102C7.14844-6.5625 7.49023-6.23047 7.98828-6.23047Z"/>
  </g>
  <g id="" transform="matrix(1 0 0 1 304.924 1933)">
   <path d="M14.9707 5.66406C21.9336 5.66406 27.6953-0.0976562 27.6953-7.05078C27.6953-14.0137 21.9238-19.7754 14.9609-19.7754C8.00781-19.7754 2.25586-14.0137 2.25586-7.05078C2.25586-0.0976562 8.01758 5.66406 14.9707 5.66406ZM14.9707 3.84766C8.93555 3.84766 4.08203-1.01562 4.08203-7.05078C4.08203-13.0957 8.92578-17.9492 14.9609-17.9492C21.0059-17.9492 25.8594-13.0957 25.8691-7.05078C25.8789-1.01562 21.0156 3.84766 14.9707 3.84766ZM10.0586-6.14258L14.0625-6.14258L14.0625-2.12891C14.0625-1.5918 14.4336-1.2207 14.9512-1.2207C15.4883-1.2207 15.8594-1.5918 15.8594-2.12891L15.8594-6.14258L19.8828-6.14258C20.4102-6.14258 20.791-6.51367 20.791-7.03125C20.791-7.56836 20.4199-7.94922 19.8828-7.94922L15.8594-7.94922L15.8594-11.9531C15.8594-12.5098 15.4883-12.8809 14.9512-12.8809C14.4336-12.8809 14.0625-12.5 14.0625-11.9531L14.0625-7.94922L10.0586-7.94922C9.50195-7.94922 9.13086-7.56836 9.13086-7.03125C9.13086-6.51367 9.51172-6.14258 10.0586-6.14258Z"/>
  </g>
  <text style="stroke:none;fill:black;font-family:-apple-system,&quot;SF Pro Display&quot;,&quot;SF Pro Text&quot;,Helvetica,sans-serif;font-weight:bold;" transform="matrix(1 0 0 1 263 1953)">Design Variations</text>
  <text style="stroke:none;fill:black;font-family:-apple-system,&quot;SF Pro Display&quot;,&quot;SF Pro Text&quot;,Helvetica,sans-serif;" transform="matrix(1 0 0 1 263 1971)">Symbols are supported in up to nine weights and three scales.</text>
  <text style="stroke:none;fill:black;font-family:-apple-system,&quot;SF Pro Display&quot;,&quot;SF Pro Text&quot;,Helvetica,sans-serif;" transform="matrix(1 0 0 1 263 1989)">For optimal layout with text and other symbols, vertically align</text>
  <text style="stroke:none;fill:black;font-family:-apple-system,&quot;SF Pro Display&quot;,&quot;SF Pro Text&quot;,Helvetica,sans-serif;" transform="matrix(1 0 0 1 263 2007)">symbols with the adjacent text.</text>
  <line id="" style="fill:none;stroke:#00AEEF;stroke-width:0.5;opacity:1.0;" x1="776" x2="776" y1="1919" y2="1933"/>
  <g id="" transform="matrix(1 0 0 1 776 1933)">
   <path d="M3.31055 0.126953C3.82812 0.126953 4.08203-0.0683594 4.26758-0.605469L5.52734-4.0625L11.2891-4.0625L12.5488-0.605469C12.7344-0.0683594 12.9883 0.126953 13.4961 0.126953C14.0137 0.126953 14.3457-0.185547 14.3457-0.673828C14.3457-0.839844 14.3164-0.986328 14.2383-1.20117L9.6582-13.3887C9.43359-13.9941 9.0332-14.2871 8.4082-14.2871C7.80273-14.2871 7.39258-13.9941 7.17773-13.3984L2.59766-1.19141C2.51953-0.976562 2.49023-0.830078 2.49023-0.664062C2.49023-0.175781 2.80273 0.126953 3.31055 0.126953ZM6.00586-5.53711L8.37891-12.1094L8.42773-12.1094L10.8008-5.53711Z"/>
  </g>
  <line id="" style="fill:none;stroke:#00AEEF;stroke-width:0.5;opacity:1.0;" x1="792.836" x2="792.836" y1="1919" y2="1933"/>
  <text style="stroke:none;fill:black;font-family:-apple-system,&quot;SF Pro Display&quot;,&quot;SF Pro Text&quot;,Helvetica,sans-serif;font-weight:bold;" transform="matrix(1 0 0 1 776 1953)">Margins</text>
  <text style="stroke:none;fill:black;font-family:-apple-system,&quot;SF Pro Display&quot;,&quot;SF Pro Text&quot;,Helvetica,sans-serif;" transform="matrix(1 0 0 1 776 1971)">Leading and trailing margins on the left and right side of each symbol</text>
  <text style="stroke:none;fill:black;font-family:-apple-system,&quot;SF Pro Display&quot;,&quot;SF Pro Text&quot;,Helvetica,sans-serif;" transform="matrix(1 0 0 1 776 1989)">can be adjusted by modifying the x-location of the margin guidelines.</text>
  <text style="stroke:none;fill:black;font-family:-apple-system,&quot;SF Pro Display&quot;,&quot;SF Pro Text&quot;,Helvetica,sans-serif;" transform="matrix(1 0 0 1 776 2007)">Modifications are automatically applied proportionally to all</text>
  <text style="stroke:none;fill:black;font-family:-apple-system,&quot;SF Pro Display&quot;,&quot;SF Pro Text&quot;,Helvetica,sans-serif;" transform="matrix(1 0 0 1 776 2025)">scales and weights.</text>
  <g id="" transform="matrix(1 0 0 1 1289 1933)">
   <path d="M2.8418 1.86523L4.54102 3.57422C5.40039 4.44336 6.38672 4.38477 7.31445 3.35938L17.4902-7.85156C17.7539-7.76367 18.0273-7.7832 18.3398-7.8418L19.4043-8.03711L20.0684-7.36328L20.0293-6.80664C19.9902-6.30859 20.1172-5.92773 20.6055-5.44922L21.3672-4.70703C21.8457-4.22852 22.4609-4.19922 22.9297-4.66797L25.8398-7.58789C26.3086-8.05664 26.2891-8.65234 25.8105-9.13086L25.0391-9.89258C24.5605-10.3711 24.1895-10.5273 23.7109-10.4883L23.1348-10.4395L22.4902-11.0742L22.7344-12.1973C22.8613-12.7637 22.7051-13.2031 22.1191-13.7891L19.9219-15.9766C16.582-19.2969 12.1484-19.2188 9.25781-16.3281C8.83789-15.918 8.80859-15.3418 9.04297-14.9512C9.27734-14.5898 9.73633-14.3555 10.3809-14.5215C11.8457-14.8633 13.3691-14.9219 14.7949-13.9844L14.209-12.5293C14.0137-12.0508 13.9844-11.6504 14.1113-11.2891L3.04688-0.898438C2.06055 0.0195312 1.98242 0.996094 2.8418 1.86523ZM10.752-15.957C13.1836-17.7344 16.4746-17.4316 18.7012-15.2051L21.1328-12.793C21.3672-12.5586 21.4062-12.373 21.3379-12.0312L21.0156-10.5469L22.5195-9.0625L23.5059-9.12109C23.7598-9.13086 23.8379-9.11133 24.0332-8.91602L24.6094-8.33984L22.168-5.89844L21.5918-6.47461C21.3965-6.66992 21.3672-6.74805 21.377-7.01172L21.4453-7.98828L19.9512-9.47266L18.4277-9.21875C18.1055-9.15039 17.959-9.17969 17.7148-9.41406L15.7129-11.416C15.459-11.6504 15.4297-11.8164 15.5859-12.1875L16.4648-14.2773C14.9023-15.7324 12.8711-16.3574 10.8398-15.7617C10.6836-15.7227 10.625-15.8496 10.752-15.957ZM5.27344 2.30469L4.10156 1.14258C3.63281 0.683594 3.74023 0.341797 4.14062-0.0195312L14.9512-10.1953L16.416-8.71094L6.42578 2.27539C6.07422 2.67578 5.74219 2.77344 5.27344 2.30469Z"/>
  </g>
  <text style="stroke:none;fill:black;font-family:-apple-system,&quot;SF Pro Display&quot;,&quot;SF Pro Text&quot;,Helvetica,sans-serif;font-weight:bold;" transform="matrix(1 0 0 1 1289 1953)">Exporting</text>
  <text style="stroke:none;fill:black;font-family:-apple-system,&quot;SF Pro Display&quot;,&quot;SF Pro Text&quot;,Helvetica,sans-serif;" transform="matrix(1 0 0 1 1289 1971)">Symbols should be outlined when exporting to ensure the</text>
  <text style="stroke:none;fill:black;font-family:-apple-system,&quot;SF Pro Display&quot;,&quot;SF Pro Text&quot;,Helvetica,sans-serif;" transform="matrix(1 0 0 1 1289 1989)">design is preserved when submitting to Xcode.</text>
  <text id="template-version" style="stroke:none;fill:black;font-family:-apple-system,&quot;SF Pro Display&quot;,&quot;SF Pro Text&quot;,Helvetica,sans-serif;text-anchor:end;" transform="matrix(1 0 0 1 3036 1933)">Template v.2.0</text>
  <text style="stroke:none;fill:black;font-family:-apple-system,&quot;SF Pro Display&quot;,&quot;SF Pro Text&quot;,Helvetica,sans-serif;text-anchor:end;" transform="matrix(1 0 0 1 3036 1951)">Requires Xcode 12 or greater</text>
  <text style="stroke:none;fill:black;font-family:-apple-system,&quot;SF Pro Display&quot;,&quot;SF Pro Text&quot;,Helvetica,sans-serif;text-anchor:end;" transform="matrix(1 0 0 1 3036 1969)">Generated from timer.square</text>
  <text style="stroke:none;fill:black;font-family:-apple-system,&quot;SF Pro Display&quot;,&quot;SF Pro Text&quot;,Helvetica,sans-serif;text-anchor:end;" transform="matrix(1 0 0 1 3036 1987)">Typeset at 100 points</text>
  <text style="stroke:none;fill:black;font-family:-apple-system,&quot;SF Pro Display&quot;,&quot;SF Pro Text&quot;,Helvetica,sans-serif;" transform="matrix(1 0 0 1 263 726)">Small</text>
  <text style="stroke:none;fill:black;font-family:-apple-system,&quot;SF Pro Display&quot;,&quot;SF Pro Text&quot;,Helvetica,sans-serif;" transform="matrix(1 0 0 1 263 1156)">Medium</text>
  <text style="stroke:none;fill:black;font-family:-apple-system,&quot;SF Pro Display&quot;,&quot;SF Pro Text&quot;,Helvetica,sans-serif;" transform="matrix(1 0 0 1 263 1586)">Large</text>
 </g>
 <g id="Guides">
  <g id="H-reference" style="fill:#27AAE1;stroke:none;" transform="matrix(1 0 0 1 339 696)">
   <path d="M0.976562 0L3.66211 0L12.9883-24.4629L45.752-24.4629L55.127 0L57.7637 0L30.6152-70.459L28.125-70.459ZM29.3457-67.1387L29.4434-67.1387L44.873-26.709L13.8672-26.709Z"/>
  </g>
  <line id="Baseline-S" style="fill:none;stroke:#27AAE1;opacity:1;stroke-width:0.5;" x1="263" x2="3036" y1="696" y2="696"/>
  <line id="Capline-S" style="fill:none;stroke:#27AAE1;opacity:1;stroke-width:0.5;" x1="263" x2="3036" y1="625.541" y2="625.541"/>
  <g id="H-reference" style="fill:#27AAE1;stroke:none;" transform="matrix(1 0 0 1 339 1126)">
   <path d="M0.976562 0L3.66211 0L12.9883-24.4629L45.752-24.4629L55.127 0L57.7637 0L30.6152-70.459L28.125-70.459ZM29.3457-67.1387L29.4434-67.1387L44.873-26.709L13.8672-26.709Z"/>
  </g>
  <line id="Baseline-M" style="fill:none;stroke:#27AAE1;opacity:1;stroke-width:0.5;" x1="263" x2="3036" y1="1126" y2="1126"/>
  <line id="Capline-M" style="fill:none;stroke:#27AAE1;opacity:1;stroke-width:0.5;" x1="263" x2="3036" y1="1055.54" y2="1055.54"/>
  <g id="H-reference" style="fill:#27AAE1;stroke:none;" transform="matrix(1 0 0 1 339 1556)">
   <path d="M0.976562 0L3.66211 0L12.9883-24.4629L45.752-24.4629L55.127 0L57.7637 0L30.6152-70.459L28.125-70.459ZM29.3457-67.1387L29.4434-67.1387L44.873-26.709L13.8672-26.709Z"/>
  </g>
  <line id="Baseline-L" style="fill:none;stroke:#27AAE1;opacity:1;stroke-width:0.5;" x1="263" x2="3036" y1="1556" y2="1556"/>
  <line id="Capline-L" style="fill:none;stroke:#27AAE1;opacity:1;stroke-width:0.5;" x1="263" x2="3036" y1="1485.54" y2="1485.54"/>
  <line id="left-margin" style="fill:none;stroke:#00AEEF;stroke-width:0.5;opacity:1.0;" x1="1392.45" x2="1392.45" y1="1030.79" y2="1150.12"/>
  <line id="right-margin" style="fill:none;stroke:#00AEEF;stroke-width:0.5;opacity:1.0;" x1="1507.24" x2="1507.24" y1="1030.79" y2="1150.12"/>
 </g>
 <g id="Symbols">
  <g id="Black-L" transform="matrix(1 0 0 1 2855.62 1556)">
   <path d="M39.9902 26.5137L115.576 26.5137C130.811 26.5137 139.502 17.8711 139.502 2.68555L139.502-73.0957C139.502-88.2812 130.811-96.875 115.576-96.875L39.9902-96.875C24.7559-96.875 16.0645-88.2812 16.0645-73.0957L16.0645 2.68555C16.0645 17.8711 24.7559 26.5137 39.9902 26.5137ZM42.6758 6.29883C38.4766 6.29883 36.3281 4.39453 36.3281-0.146484L36.3281-70.2148C36.3281-74.7559 38.4766-76.6602 42.6758-76.6602L112.842-76.6602C117.09-76.6602 119.238-74.7559 119.238-70.2148L119.238-0.146484C119.238 4.39453 117.09 6.29883 112.842 6.29883ZM44.2383-35.2539C44.2383-16.5527 59.082-1.75781 77.7832-1.75781C96.4844-1.75781 111.279-16.5527 111.279-35.2539C111.279-53.9551 96.4844-68.7988 77.7832-68.7988C74.1699-68.7988 71.582-66.4062 71.582-62.9883L71.582-53.6133C71.582-50.4883 74.0234-47.998 77.1973-47.998C80.2734-47.998 82.666-50.4883 82.666-53.6133L82.666-55.8105C91.7969-53.6133 98.3398-45.0195 98.3398-35.2539C98.3398-23.877 89.1602-14.6973 77.7832-14.6973C66.3574-14.6973 57.1777-23.877 57.1777-35.2539C57.1777-39.4531 58.5449-43.6035 60.9863-47.1191C63.4277-50.9277 63.4277-53.9551 60.8398-56.4941C57.8125-59.2773 53.3691-58.5449 50.7324-54.8828C46.5332-49.2188 44.2383-42.2363 44.2383-35.2539ZM83.6426-28.7109C87.0605-32.2266 86.5723-37.8418 82.4219-40.0391L69.6289-47.0703C66.3574-48.8281 63.1836-46.2891 65.2344-42.627L72.4121-30.0781C74.7559-25.9277 80.2246-25.3418 83.6426-28.7109Z"/>
  </g>
  <g id="Heavy-L" transform="matrix(1 0 0 1 2559.93 1556)">
   <path d="M38.8184 25.4883L114.697 25.4883C129.346 25.4883 137.451 17.4316 137.451 2.88086L137.451-73.2422C137.451-87.793 129.346-95.8496 114.697-95.8496L38.8184-95.8496C24.2188-95.8496 16.0645-87.793 16.0645-73.2422L16.0645 2.88086C16.0645 17.4316 24.2188 25.4883 38.8184 25.4883ZM40.918 8.00781C36.084 8.00781 33.5938 5.71289 33.5938 0.585938L33.5938-70.9473C33.5938-76.0742 36.084-78.3691 40.918-78.3691L112.549-78.3691C117.383-78.3691 119.922-76.0742 119.922-70.9473L119.922 0.585938C119.922 5.71289 117.383 8.00781 112.549 8.00781ZM42.3828-35.2539C42.3828-16.1621 57.666-0.878906 76.7578-0.878906C95.8496-0.878906 111.133-16.1621 111.133-35.2539C111.133-54.3457 95.8496-69.6289 76.7578-69.6289C73.4375-69.6289 71.0938-67.4316 71.0938-64.2578L71.0938-54.0527C71.0938-51.123 73.3398-48.877 76.2695-48.877C79.1016-48.877 81.25-51.1719 81.25-54.0527L81.25-57.8125C91.6992-55.7617 99.4141-46.2891 99.4141-35.2539C99.4141-22.7051 89.3066-12.5977 76.7578-12.5977C64.209-12.5977 54.1016-22.7051 54.1016-35.2539C54.1016-40.1855 55.7617-44.9219 58.7891-48.877C60.9863-52.2461 60.9375-55.0293 58.6426-57.3242C55.957-59.8633 51.9531-59.2773 49.5117-56.0059C44.9219-50.0977 42.3828-42.6758 42.3828-35.2539ZM82.5684-29.0527C85.8398-32.4219 85.3027-37.6953 81.3477-39.8926L67.4805-48.0957C64.4043-49.8047 61.5234-47.3633 63.4277-44.043L71.7773-30.3223C74.1211-26.3672 79.2969-25.7812 82.5684-29.0527Z"/>
  </g>
  <g id="Bold-L" transform="matrix(1 0 0 1 2264.37 1556)">
   <path d="M37.5 24.3652L113.721 24.3652C127.637 24.3652 135.156 16.8945 135.156 3.07617L135.156-73.3887C135.156-87.207 127.637-94.7266 113.721-94.7266L37.5-94.7266C23.6328-94.7266 16.0645-87.2559 16.0645-73.3887L16.0645 3.07617C16.0645 16.8945 23.6328 24.3652 37.5 24.3652ZM38.9648 9.91211C33.4473 9.91211 30.5176 7.17773 30.5176 1.41602L30.5176-71.7285C30.5176-77.5391 33.4473-80.2734 38.9648-80.2734L112.256-80.2734C117.725-80.2734 120.703-77.5391 120.703-71.7285L120.703 1.41602C120.703 7.17773 117.725 9.91211 112.256 9.91211ZM40.2832-35.2539C40.2832-15.6738 56.0547 0.0976562 75.6348 0.0976562C95.166 0.0976562 110.938-15.6738 110.938-35.2539C110.938-54.7363 95.166-70.6055 75.6348-70.6055C72.6074-70.6055 70.5566-68.6035 70.5566-65.6738L70.5566-54.4922C70.5566-51.8555 72.5586-49.8535 75.1953-49.8535C77.7344-49.8535 79.6875-51.9043 79.6875-54.4922L79.6875-60.0098C91.6016-58.1543 100.537-47.7051 100.537-35.2539C100.537-21.4355 89.4531-10.3027 75.6348-10.3027C61.8164-10.3027 50.6348-21.4355 50.6836-35.2539C50.6836-40.9668 52.6367-46.4355 56.25-50.8789C58.2031-53.6621 58.2031-56.25 56.2012-58.3008C53.8574-60.5469 50.3418-60.1074 48.1934-57.2754C43.1152-51.0742 40.2832-43.1641 40.2832-35.2539ZM81.3477-29.3457C84.4727-32.5684 83.9355-37.5 80.1758-39.6973L65.0391-49.2188C62.2559-50.8789 59.668-48.6328 61.4258-45.6055L71.0938-30.6152C73.4375-26.8555 78.2227-26.2695 81.3477-29.3457Z"/>
  </g>
  <g id="Semibold-L" transform="matrix(1 0 0 1 1968.44 1556)">
   <path d="M36.6211 23.584L113.037 23.584C126.514 23.584 133.594 16.5039 133.594 3.17383L133.594-73.5352C133.594-86.8164 126.514-93.9453 113.037-93.9453L36.6211-93.9453C23.1934-93.9453 16.0645-86.8652 16.0645-73.5352L16.0645 3.17383C16.0645 16.5527 23.1934 23.584 36.6211 23.584ZM37.5977 11.2793C31.6406 11.2793 28.418 8.20312 28.418 1.95312L28.418-72.3145C28.418-78.5156 31.6406-81.5918 37.5977-81.5918L112.061-81.5918C117.969-81.5918 121.24-78.5156 121.24-72.3145L121.24 1.95312C121.24 8.20312 117.969 11.2793 112.061 11.2793ZM38.8184-35.2051C38.8184-15.3809 54.9805 0.78125 74.8047 0.78125C94.6777 0.78125 110.84-15.3809 110.84-35.2051C110.84-55.0293 94.6777-71.2402 74.8535-71.2402C72.0215-71.2402 70.166-69.4336 70.166-66.6504L70.166-54.834C70.166-52.3926 71.9727-50.5371 74.4141-50.5371C76.8066-50.5371 78.6133-52.4414 78.6133-54.834L78.6133-61.5723C91.5527-59.8145 101.367-48.6816 101.367-35.2051C101.367-20.5078 89.5508-8.69141 74.8047-8.69141C60.1074-8.69141 48.291-20.5078 48.291-35.2051C48.291-41.5039 50.4883-47.4609 54.541-52.2461C56.2988-54.6387 56.2988-57.0801 54.4922-58.9844C52.4414-61.0352 49.2676-60.6934 47.2656-58.1543C41.8457-51.7578 38.8184-43.5059 38.8184-35.2051ZM80.5176-29.5898C83.5449-32.7148 82.959-37.3535 79.3457-39.5996L63.3789-50C60.7422-51.6113 58.3496-49.4629 60.0586-46.7285L70.6055-30.8594C72.9492-27.1973 77.4414-26.6113 80.5176-29.5898Z"/>
  </g>
  <g id="Medium-L" transform="matrix(1 0 0 1 1672.31 1556)">
   <path d="M35.9375 22.998L112.5 22.998C125.635 22.998 132.422 16.2109 132.422 3.27148L132.422-73.6328C132.422-86.5234 125.635-93.3105 112.5-93.3105L35.9375-93.3105C22.9004-93.3105 16.0645-86.5723 16.0645-73.6328L16.0645 3.27148C16.0645 16.2598 22.9004 22.998 35.9375 22.998ZM36.5723 12.2559C30.2246 12.2559 26.8066 8.98438 26.8066 2.39258L26.8066-72.7051C26.8066-79.2969 30.2246-82.6172 36.5723-82.6172L111.865-82.6172C118.115-82.6172 121.68-79.2969 121.68-72.7051L121.68 2.39258C121.68 8.98438 118.115 12.2559 111.865 12.2559ZM37.7441-35.2051C37.7441-15.1367 54.1504 1.26953 74.2188 1.26953C94.3359 1.26953 110.742-15.1367 110.742-35.2051C110.742-55.2734 94.3359-71.7285 74.2676-71.7285C71.582-71.7285 69.873-70.0195 69.873-67.3828L69.873-55.0781C69.873-52.7832 71.582-51.0254 73.877-51.0254C76.123-51.0254 77.7832-52.832 77.7832-55.0781L77.7832-62.7441C91.5039-61.084 101.953-49.4141 101.953-35.2051C101.953-19.873 89.5996-7.51953 74.2188-7.51953C58.8867-7.51953 46.4844-19.873 46.5332-35.2051C46.5332-41.8945 48.877-48.2422 53.2715-53.2715C54.834-55.4199 54.834-57.7148 53.2227-59.4727C51.3184-61.377 48.4375-61.084 46.582-58.8379C40.918-52.2461 37.7441-43.7988 37.7441-35.2051ZM79.8828-29.7852C82.8125-32.8125 82.2754-37.2559 78.7109-39.502L62.1094-50.5859C59.6191-52.1484 57.373-50.0977 59.0332-47.5586L70.2148-31.0059C72.5586-27.4414 76.9043-26.8555 79.8828-29.7852Z"/>
  </g>
  <g id="Regular-L" transform="matrix(1 0 0 1 1376.38 1556)">
   <path d="M35.0586 22.2168L111.816 22.2168C124.463 22.2168 130.859 15.8691 130.859 3.41797L130.859-73.7305C130.859-86.1816 124.463-92.5293 111.816-92.5293L35.0586-92.5293C22.4609-92.5293 16.0645-86.2305 16.0645-73.7305L16.0645 3.41797C16.0645 15.918 22.4609 22.2168 35.0586 22.2168ZM35.2539 13.5742C28.418 13.5742 24.707 9.96094 24.707 2.97852L24.707-73.291C24.707-80.2734 28.418-83.8867 35.2539-83.8867L111.67-83.8867C118.359-83.8867 122.217-80.2734 122.217-73.291L122.217 2.97852C122.217 9.96094 118.359 13.5742 111.67 13.5742ZM36.3281-35.2051C36.3281-14.7949 53.0762 1.95312 73.4375 1.95312C93.8477 1.95312 110.645-14.7949 110.645-35.2051C110.645-55.5664 93.8477-72.3633 73.4863-72.3633C70.9961-72.3633 69.4824-70.8008 69.4824-68.3105L69.4824-55.4199C69.4824-53.2715 71.0449-51.709 73.1445-51.709C75.1953-51.709 76.709-53.3691 76.709-55.4199L76.709-64.2578C91.4062-62.6953 102.783-50.3418 102.783-35.2051C102.783-18.9941 89.6973-5.9082 73.4375-5.9082C57.2266-5.9082 44.1406-18.9941 44.1895-35.2051C44.1895-42.4316 46.7773-49.2676 51.5625-54.6387C52.9785-56.3965 52.9785-58.5449 51.5625-60.1562C49.9023-61.8164 47.3633-61.6699 45.7031-59.668C39.6484-52.9297 36.3281-44.1406 36.3281-35.2051ZM79.0527-30.0293C81.8848-32.959 81.2988-37.1094 77.9297-39.3555L60.4492-51.3672C58.1543-52.8809 56.1035-50.9277 57.666-48.6328L69.7266-31.2012C72.1191-27.7832 76.1719-27.1973 79.0527-30.0293Z"/>
  </g>
  <g id="Light-L" transform="matrix(1 0 0 1 1080.5 1556)">
   <path d="M34.0332 21.4355L111.23 21.4355C123.096 21.4355 129.199 15.2344 129.199 3.56445L129.199-73.8281C129.199-85.5469 123.096-91.6992 111.23-91.6992L34.0332-91.6992C22.168-91.6992 16.0645-85.6445 16.0645-73.8281L16.0645 3.56445C16.0645 15.3809 22.168 21.4355 34.0332 21.4355ZM34.1797 14.7949C26.709 14.7949 22.7051 10.8398 22.7051 3.22266L22.7051-73.4863C22.7051-81.1523 26.709-85.0586 34.1797-85.0586L111.035-85.0586C118.359-85.0586 122.559-81.1523 122.559-73.4863L122.559 3.22266C122.559 10.8398 118.359 14.7949 111.035 14.7949ZM34.9609-35.1562C34.9609-14.4531 51.9043 2.49023 72.6074 2.49023C93.3105 2.49023 110.352-14.4531 110.352-35.1562C110.352-55.8594 93.3105-72.8516 72.6562-72.8516C70.4102-72.8516 69.1895-71.6309 69.1895-69.4824L69.1895-55.4688C69.1895-53.8086 70.3613-52.5391 72.0703-52.5391C73.7305-52.5391 74.9023-53.8574 74.9023-55.4688L74.9023-66.5527C91.3086-65.4297 104.199-51.8555 104.199-35.1562C104.199-17.7246 90.0879-3.66211 72.6074-3.66211C55.1758-3.66211 41.0645-17.7246 41.1133-35.1562C41.1133-43.1641 44.043-50.7324 49.5117-56.6406C50.6348-58.0078 50.7324-59.7656 49.5605-60.9863C48.3398-62.2559 46.3867-62.207 44.9707-60.6445C38.5254-53.6621 34.9609-44.5312 34.9609-35.1562ZM77.8809-30.5664C80.4688-33.3496 79.8828-37.1582 76.7578-39.3066L58.5449-52.1484C56.6406-53.418 54.9805-51.7578 56.25-49.9023L69.1895-31.6895C71.4355-28.5156 75.1465-27.9785 77.8809-30.5664Z"/>
  </g>
  <g id="Thin-L" transform="matrix(1 0 0 1 784.889 1556)">
   <path d="M32.666 20.3613L110.352 20.3613C121.24 20.3613 127.002 14.4531 127.002 3.75977L127.002-73.9746C127.002-84.7168 121.24-90.5762 110.352-90.5762L32.666-90.5762C21.7773-90.5762 16.0645-84.8633 16.0645-73.9746L16.0645 3.75977C16.0645 14.6484 21.7773 20.3613 32.666 20.3613ZM32.8125 16.4062C24.4141 16.4062 19.9707 12.0117 19.9707 3.56445L19.9707-73.7793C19.9707-82.2754 24.4141-86.6699 32.8125-86.6699L110.205-86.6699C118.359-86.6699 123.047-82.2754 123.047-73.7793L123.047 3.56445C123.047 12.0117 118.359 16.4062 110.205 16.4062ZM33.2031-35.1074C33.2031-14.0137 50.3906 3.22266 71.5332 3.22266C92.627 3.22266 109.961-14.0137 109.961-35.1074C109.961-56.25 92.627-73.5352 71.5332-73.5352C69.6777-73.5352 68.75-72.7051 68.75-70.9961L68.75-55.5664C68.75-54.4922 69.5312-53.7109 70.6543-53.7109C71.7285-53.7109 72.5098-54.541 72.5098-55.5664L72.5098-69.5801C91.2109-68.9941 106.104-53.8574 106.104-35.1074C106.104-16.0156 90.625-0.585938 71.5332-0.585938C52.3926-0.585938 37.0117-16.0156 37.0117-35.1074C37.0117-44.0918 40.4785-52.6855 46.7773-59.2773C47.6074-60.1074 47.7539-61.3281 46.9727-62.0605C46.2402-62.8418 45.0195-62.8906 44.043-61.8652C37.0605-54.6387 33.2031-45.0195 33.2031-35.1074ZM76.2207-31.2988C78.5645-33.8379 78.0273-37.207 75.2441-39.1602L56.0059-53.1738C54.6387-54.1504 53.4668-52.9297 54.4434-51.5625L68.457-32.373C70.5078-29.541 73.7793-28.9551 76.2207-31.2988Z"/>
  </g>
  <g id="Ultralight-L" transform="matrix(1 0 0 1 488.739 1556)">
   <path d="M31.9824 19.7754L109.961 19.7754C120.312 19.7754 125.879 14.0625 125.879 3.85742L125.879-74.0723C125.879-84.2773 120.312-89.9902 109.961-89.9902L31.9824-89.9902C21.582-89.9902 16.0645-84.4727 16.0645-74.0723L16.0645 3.85742C16.0645 14.2578 21.582 19.7754 31.9824 19.7754ZM32.1289 17.2363C23.1934 17.2363 18.6035 12.6465 18.6035 3.75977L18.6035-73.9258C18.6035-82.8125 23.1934-87.4512 32.1289-87.4512L109.766-87.4512C118.359-87.4512 123.291-82.8125 123.291-73.9258L123.291 3.75977C123.291 12.6465 118.359 17.2363 109.766 17.2363ZM32.2754-35.1074C32.2754-13.7695 49.6094 3.61328 70.9473 3.61328C92.2852 3.61328 109.717-13.7695 109.717-35.1074C109.717-56.4453 92.2852-73.877 70.9473-73.877C69.2871-73.877 68.5547-73.2422 68.5547-71.7773L68.5547-55.6641C68.5547-54.834 69.0918-54.2969 69.9219-54.2969C70.752-54.2969 71.2891-54.8828 71.2891-55.6641L71.2891-71.1914C91.1621-70.8008 107.08-54.8828 107.08-35.1074C107.08-15.1367 90.918 0.927734 70.9473 0.927734C51.0254 0.927734 34.9121-15.1367 34.9121-35.1074C34.9121-44.5801 38.6719-53.7109 45.4102-60.5957C46.0449-61.2305 46.1914-62.1094 45.6543-62.6465C45.1172-63.1836 44.3848-63.2812 43.6035-62.5C36.2793-55.127 32.2754-45.3125 32.2754-35.1074ZM75.4395-31.6895C77.5879-34.1309 77.0508-37.207 74.4629-39.1113L54.6875-53.7109C53.6133-54.4922 52.6855-53.4668 53.4668-52.3926L68.0664-32.7148C70.0195-30.0293 73.0469-29.4922 75.4395-31.6895Z"/>
  </g>
  <g id="Black-M" transform="matrix(1 0 0 1 2872.19 1126)">
   <path d="M31.9824 13.5742L90.4297 13.5742C102.686 13.5742 109.961 6.29883 109.961-5.95703L109.961-64.4043C109.961-76.6602 102.686-83.9355 90.4297-83.9355L31.9824-83.9355C19.7266-83.9355 12.4512-76.6602 12.4512-64.4043L12.4512-5.95703C12.4512 6.29883 19.7266 13.5742 31.9824 13.5742ZM34.9121-4.73633C32.0801-4.73633 30.7617-5.81055 30.7617-8.88672L30.7617-61.4746C30.7617-64.5508 32.0801-65.6738 34.9121-65.6738L87.5-65.6738C90.332-65.6738 91.6504-64.5508 91.6504-61.4746L91.6504-8.88672C91.6504-5.81055 90.332-4.73633 87.5-4.73633ZM36.084-35.2539C36.084-21.1426 47.0703-10.1562 61.1816-10.1562C75.3418-10.1562 86.3281-21.1426 86.3281-35.2539C86.3281-49.3652 75.3418-60.3516 61.1816-60.3516C58.2031-60.3516 56.0059-58.4473 56.0059-55.6641L56.0059-48.9258C56.0059-46.4355 58.0078-44.4336 60.5469-44.4336C63.0859-44.4336 64.9902-46.4355 64.9902-48.9258L64.9902-49.707C71.2402-48.0469 75.5859-41.8945 75.5859-35.2539C75.5859-27.2949 69.1895-20.8496 61.1816-20.8496C53.2227-20.8496 46.8262-27.2949 46.8262-35.2539C46.8262-37.9395 47.6562-40.7227 49.1699-43.1152C51.2695-46.5332 51.2695-48.9258 49.0723-50.9766C46.4844-53.2715 42.7246-52.5879 40.5273-49.4629C37.6465-45.3125 36.084-40.2832 36.084-35.2539ZM65.625-30.0781C68.3594-32.9102 68.0176-37.5488 64.6973-39.1602L55.8594-43.457C53.2227-44.7754 50.5859-42.7734 52.2461-39.6973L56.6895-31.1523C58.4473-27.832 62.9395-27.3926 65.625-30.0781Z"/>
  </g>
  <g id="Heavy-M" transform="matrix(1 0 0 1 2576.39 1126)">
   <path d="M31.0059 12.6465L89.6484 12.6465C101.416 12.6465 108.154 5.9082 108.154-5.81055L108.154-64.5508C108.154-76.2695 101.416-83.0566 89.6484-83.0566L31.0059-83.0566C19.2383-83.0566 12.4512-76.3184 12.4512-64.5508L12.4512-5.81055C12.4512 5.9082 19.2383 12.6465 31.0059 12.6465ZM33.252-3.17383C29.9316-3.17383 28.2715-4.63867 28.2715-8.1543L28.2715-62.207C28.2715-65.7715 29.9316-67.2363 33.252-67.2363L87.3535-67.2363C90.6738-67.2363 92.334-65.7715 92.334-62.207L92.334-8.1543C92.334-4.63867 90.6738-3.17383 87.3535-3.17383ZM34.4238-35.2539C34.4238-20.8008 45.8496-9.32617 60.3027-9.32617C74.7559-9.32617 86.2305-20.8008 86.2305-35.2539C86.2305-49.707 74.7559-61.1816 60.3027-61.1816C57.5195-61.1816 55.5176-59.375 55.5176-56.7383L55.5176-49.3652C55.5176-47.0215 57.373-45.166 59.7656-45.166C62.1094-45.166 63.916-47.0215 63.916-49.3652L63.916-51.3184C71.1426-49.707 76.3672-42.9199 76.3672-35.2539C76.3672-26.3672 69.1895-19.1895 60.3027-19.1895C51.416-19.1895 44.2383-26.3672 44.2383-35.2539C44.2383-38.5254 45.3125-41.7969 47.2656-44.5312C49.1699-47.5098 49.1699-49.8047 47.168-51.709C44.873-53.8086 41.4551-53.2715 39.4043-50.4395C36.1816-46.0449 34.4238-40.6738 34.4238-35.2539ZM64.7461-30.2734C67.3828-32.959 66.9922-37.3047 63.8184-38.9648L54.0039-44.3848C51.5137-45.7031 49.0723-43.75 50.6348-40.918L56.1523-31.2988C57.9102-28.125 62.1582-27.6855 64.7461-30.2734Z"/>
  </g>
  <g id="Bold-M" transform="matrix(1 0 0 1 2280.68 1126)">
   <path d="M29.8828 11.6699L88.7207 11.6699C99.9512 11.6699 106.152 5.46875 106.152-5.66406L106.152-64.6973C106.152-75.8789 99.9512-82.0312 88.7207-82.0312L29.8828-82.0312C18.6523-82.0312 12.4512-75.8789 12.4512-64.6973L12.4512-5.66406C12.4512 5.51758 18.6523 11.6699 29.8828 11.6699ZM31.3965-1.41602C27.5391-1.41602 25.5371-3.27148 25.5371-7.32422L25.5371-63.0371C25.5371-67.1387 27.5391-68.9453 31.3965-68.9453L87.207-68.9453C91.0156-68.9453 93.0664-67.1387 93.0664-63.0371L93.0664-7.32422C93.0664-3.27148 91.0156-1.41602 87.207-1.41602ZM32.5195-35.2539C32.5195-20.3613 44.4336-8.44727 59.3262-8.44727C74.1699-8.44727 86.084-20.3613 86.084-35.2539C86.084-50.0977 74.1699-62.0605 59.3262-62.0605C56.7871-62.0605 55.0293-60.4004 55.0293-57.959L55.0293-49.9023C55.0293-47.6562 56.6895-45.9473 58.9355-45.9473C61.084-45.9473 62.7441-47.7051 62.7441-49.9023L62.7441-53.0762C71.0449-51.5137 77.1973-43.9941 77.1973-35.2539C77.1973-25.3418 69.2383-17.334 59.3262-17.334C49.3652-17.334 41.3574-25.3418 41.4062-35.2539C41.4062-39.1602 42.7246-42.9688 45.166-46.1426C46.8262-48.6328 46.7773-50.7812 45.0684-52.5391C43.0176-54.4434 39.9902-54.0039 38.1836-51.5625C34.5215-46.9238 32.5195-41.1133 32.5195-35.2539ZM63.8184-30.4688C66.3086-33.0566 65.918-37.1094 62.8418-38.8184L51.9043-45.3613C49.5605-46.6797 47.3633-44.8242 48.8281-42.2852L55.5176-31.4941C57.3242-28.418 61.2793-27.9785 63.8184-30.4688Z"/>
  </g>
  <g id="Semibold-M" transform="matrix(1 0 0 1 1984.65 1126)">
   <path d="M29.1016 10.9863L88.0859 10.9863C98.9746 10.9863 104.785 5.17578 104.785-5.56641L104.785-64.8438C104.785-75.5859 98.9746-81.3477 88.0859-81.3477L29.1016-81.3477C18.2617-81.3477 12.4512-75.5859 12.4512-64.8438L12.4512-5.56641C12.4512 5.22461 18.2617 10.9863 29.1016 10.9863ZM30.127-0.195312C25.8789-0.195312 23.6328-2.34375 23.6328-6.78711L23.6328-63.623C23.6328-68.0664 25.8789-70.166 30.127-70.166L87.1094-70.166C91.2598-70.166 93.6035-68.0664 93.6035-63.623L93.6035-6.78711C93.6035-2.34375 91.2598-0.195312 87.1094-0.195312ZM31.2012-35.2539C31.2012-20.1172 43.457-7.8125 58.5938-7.8125C73.7793-7.8125 86.0352-20.1172 86.0352-35.2539C86.0352-50.3418 73.7793-62.6465 58.6426-62.6465C56.25-62.6465 54.6387-61.084 54.6387-58.7891L54.6387-50.2441C54.6387-48.1445 56.25-46.5332 58.3496-46.5332C60.3516-46.5332 61.9141-48.1445 61.9141-50.2441L61.9141-54.2969C70.9961-52.7832 77.7832-44.7754 77.7832-35.2539C77.7832-24.6094 69.2383-16.0645 58.5938-16.0645C47.998-16.0645 39.4043-24.6094 39.4531-35.2539C39.4531-39.5996 40.918-43.7988 43.7012-47.2168C45.2148-49.3652 45.166-51.4648 43.6035-53.0762C41.7969-54.8828 39.0137-54.4922 37.3047-52.2949C33.3496-47.5098 31.2012-41.4062 31.2012-35.2539ZM63.1348-30.6152C65.5762-33.1055 65.1367-36.9141 62.207-38.7207L50.4395-46.0938C48.2422-47.4121 46.1914-45.6055 47.6074-43.2617L55.0781-31.5918C56.9336-28.6621 60.6934-28.2227 63.1348-30.6152Z"/>
  </g>
  <g id="Medium-M" transform="matrix(1 0 0 1 1688.47 1126)">
   <path d="M28.5156 10.4492L87.6465 10.4492C98.2422 10.4492 103.711 4.98047 103.711-5.46875L103.711-64.8926C103.711-75.3418 98.2422-80.8105 87.6465-80.8105L28.5156-80.8105C17.9688-80.8105 12.4512-75.3906 12.4512-64.8926L12.4512-5.46875C12.4512 4.98047 17.9688 10.4492 28.5156 10.4492ZM29.1504 0.732422C24.6582 0.732422 22.168-1.61133 22.168-6.34766L22.168-64.0137C22.168-68.75 24.6582-71.0938 29.1504-71.0938L87.0117-71.0938C91.4551-71.0938 93.9941-68.75 93.9941-64.0137L93.9941-6.34766C93.9941-1.61133 91.4551 0.732422 87.0117 0.732422ZM30.2246-35.2539C30.2246-19.873 42.7246-7.37305 58.1055-7.37305C73.4375-7.37305 85.9863-19.873 85.9863-35.2539C85.9863-50.5371 73.4375-63.1348 58.1055-63.1348C55.8594-63.1348 54.3945-61.6211 54.3945-59.4238L54.3945-50.4883C54.3945-48.4863 55.8594-46.9238 57.8613-46.9238C59.8145-46.9238 61.2793-48.5352 61.2793-50.4883L61.2793-55.1758C70.9473-53.7598 78.2227-45.3613 78.2227-35.2539C78.2227-24.0723 69.2383-15.0879 58.1055-15.0879C46.9238-15.0879 37.8906-24.0723 37.9395-35.2539C37.9395-39.9414 39.5508-44.4336 42.5781-48.0469C43.9453-49.9512 43.9453-51.9531 42.4805-53.5156C40.8203-55.1758 38.2324-54.8828 36.6699-52.8809C32.5195-47.9492 30.2246-41.6016 30.2246-35.2539ZM62.6465-30.7129C64.9902-33.1543 64.5508-36.8164 61.6699-38.623L49.3652-46.6309C47.2656-47.9492 45.3125-46.1914 46.6797-43.9941L54.7852-31.6895C56.6406-28.8086 60.2051-28.3691 62.6465-30.7129Z"/>
  </g>
  <g id="Regular-M" transform="matrix(1 0 0 1 1392.45 1126)">
   <path d="M27.7832 9.76562L87.0117 9.76562C97.2656 9.76562 102.344 4.6875 102.344-5.37109L102.344-64.9902C102.344-75.0488 97.2656-80.127 87.0117-80.127L27.7832-80.127C17.5781-80.127 12.4512-75.0977 12.4512-64.9902L12.4512-5.37109C12.4512 4.73633 17.5781 9.76562 27.7832 9.76562ZM27.8809 1.9043C22.998 1.9043 20.3125-0.683594 20.3125-5.76172L20.3125-64.5996C20.3125-69.6777 22.998-72.2656 27.8809-72.2656L86.9141-72.2656C91.748-72.2656 94.4824-69.6777 94.4824-64.5996L94.4824-5.76172C94.4824-0.683594 91.748 1.9043 86.9141 1.9043ZM28.9062-35.2539C28.9062-19.6289 41.7969-6.73828 57.4219-6.73828C73.0469-6.73828 85.8887-19.6289 85.8887-35.2539C85.8887-50.8301 73.0469-63.7207 57.4707-63.7207C55.3711-63.7207 54.0527-62.3535 54.0527-60.2051L54.0527-50.8301C54.0527-48.9258 55.4199-47.5098 57.2754-47.5098C59.1309-47.5098 60.498-48.9746 60.498-50.8301L60.498-56.3965C70.8984-54.9805 78.8086-46.0938 78.8086-35.2539C78.8086-23.3398 69.2871-13.8184 57.4219-13.8184C45.5078-13.8184 35.9375-23.3398 35.9863-35.2539C35.9863-40.3809 37.793-45.2637 41.1133-49.1211C42.3828-50.7324 42.334-52.6367 41.0645-54.0527C39.5996-55.6152 37.2559-55.4199 35.791-53.6621C31.3965-48.5352 28.9062-41.8945 28.9062-35.2539ZM61.9629-30.8594C64.2578-33.252 63.8184-36.6699 61.0352-38.4766L47.9492-47.3145C45.9473-48.6328 44.1406-46.9238 45.459-44.9219L54.3457-31.8359C56.25-29.0039 59.6191-28.5645 61.9629-30.8594Z"/>
  </g>
  <g id="Light-M" transform="matrix(1 0 0 1 1096.47 1126)">
   <path d="M26.8555 9.0332L86.4746 9.0332C95.9961 9.0332 100.879 4.15039 100.879-5.22461L100.879-65.0879C100.879-74.5117 95.9961-79.3945 86.4746-79.3945L26.8555-79.3945C17.334-79.3945 12.4512-74.5605 12.4512-65.0879L12.4512-5.22461C12.4512 4.19922 17.334 9.0332 26.8555 9.0332ZM26.9531 2.97852C21.4844 2.97852 18.5059 0.0976562 18.5059-5.56641L18.5059-64.7949C18.5059-70.4102 21.4844-73.3398 26.9531-73.3398L86.3281-73.3398C91.748-73.3398 94.8242-70.4102 94.8242-64.7949L94.8242-5.56641C94.8242 0.0976562 91.748 2.97852 86.3281 2.97852ZM27.6855-35.2051C27.6855-19.2871 40.7715-6.25 56.6406-6.25C72.5586-6.25 85.6445-19.2871 85.6445-35.2051C85.6445-51.0742 72.5586-64.1602 56.6895-64.1602C54.834-64.1602 53.7598-63.0859 53.7598-61.2305L53.7598-50.8789C53.7598-49.3652 54.834-48.291 56.3477-48.291C57.7637-48.291 58.8867-49.4629 58.8867-50.8789L58.8867-58.4473C70.8008-57.4219 80.127-47.4609 80.127-35.2051C80.127-22.2168 69.6289-11.7676 56.6406-11.7676C43.6523-11.7676 33.2031-22.2168 33.2031-35.2051C33.2031-41.0645 35.3516-46.582 39.2578-50.9277C40.2832-52.1484 40.332-53.7109 39.3066-54.834C38.1348-56.0059 36.377-55.9082 35.1562-54.4922C30.3711-49.1699 27.6855-42.2363 27.6855-35.2051ZM60.8887-31.3477C62.9883-33.5938 62.5488-36.6699 60.0098-38.4277L46.2402-47.998C44.5801-49.1211 43.1152-47.6562 44.2383-46.0449L53.8574-32.2754C55.6641-29.6875 58.6914-29.248 60.8887-31.3477Z"/>
  </g>
  <g id="Thin-M" transform="matrix(1 0 0 1 800.758 1126)">
   <path d="M25.6348 8.05664L85.7422 8.05664C94.3848 8.05664 98.877 3.4668 98.877-5.0293L98.877-65.2344C98.877-73.7305 94.3848-78.3691 85.7422-78.3691L25.6348-78.3691C16.9922-78.3691 12.4512-73.877 12.4512-65.2344L12.4512-5.0293C12.4512 3.56445 16.9922 8.05664 25.6348 8.05664ZM25.7324 4.44336C19.3848 4.44336 16.0645 1.12305 16.0645-5.22461L16.0645-65.0391C16.0645-71.4355 19.3848-74.7559 25.7324-74.7559L85.5957-74.7559C91.748-74.7559 95.2637-71.4355 95.2637-65.0391L95.2637-5.22461C95.2637 1.12305 91.748 4.44336 85.5957 4.44336ZM26.123-35.1562C26.123-18.8965 39.4043-5.61523 55.6641-5.61523C71.9238-5.61523 85.3027-18.8965 85.3027-35.1562C85.3027-51.416 71.9238-64.7949 55.6641-64.7949C54.1504-64.7949 53.3691-64.0137 53.3691-62.5977L53.3691-50.9766C53.3691-50 54.0527-49.3164 55.0781-49.3164C56.0547-49.3164 56.7383-50.0488 56.7383-50.9766L56.7383-61.2305C70.7031-60.5957 81.8359-49.2676 81.8359-35.1562C81.8359-20.7031 70.1172-9.0332 55.6641-9.0332C41.2109-9.0332 29.541-20.7031 29.5898-35.1562C29.5898-41.8945 32.1777-48.3398 36.8652-53.2715C37.5488-54.0527 37.6465-55.127 36.9629-55.8105C36.2793-56.4941 35.2051-56.543 34.3262-55.6152C29.0527-50.0488 26.123-42.7246 26.123-35.1562ZM59.4238-32.0312C61.2793-34.0332 60.8398-36.7188 58.6426-38.2812L43.9453-48.9258C42.7734-49.7559 41.748-48.6816 42.5781-47.5098L53.2227-32.8613C54.834-30.6152 57.4707-30.1758 59.4238-32.0312Z"/>
  </g>
  <g id="Ultralight-M" transform="matrix(1 0 0 1 504.535 1126)">
   <path d="M25 7.56836L85.3516 7.56836C93.5059 7.56836 97.9004 3.125 97.9004-4.98047L97.9004-65.2832C97.9004-73.3887 93.5059-77.832 85.3516-77.832L25-77.832C16.7969-77.832 12.4512-73.4863 12.4512-65.2832L12.4512-4.98047C12.4512 3.22266 16.7969 7.56836 25 7.56836ZM25.0977 5.17578C18.3594 5.17578 14.8438 1.66016 14.8438-5.07812L14.8438-65.1855C14.8438-71.9727 18.3594-75.4395 25.0977-75.4395L85.2051-75.4395C91.748-75.4395 95.5078-71.9727 95.5078-65.1855L95.5078-5.07812C95.5078 1.66016 91.748 5.17578 85.2051 5.17578ZM25.293-35.1562C25.293-18.6523 38.6719-5.27344 55.1758-5.27344C71.6309-5.27344 85.1074-18.6523 85.1074-35.1562C85.1074-51.6113 71.6309-65.0879 55.1758-65.0879C53.8086-65.0879 53.1738-64.5508 53.1738-63.2812L53.1738-51.0254C53.1738-50.293 53.6621-49.8047 54.3945-49.8047C55.127-49.8047 55.6152-50.3906 55.6152-51.0254L55.6152-62.5977C70.6543-62.2559 82.7148-50.1465 82.7148-35.1562C82.7148-19.9219 70.3613-7.66602 55.1758-7.66602C39.9414-7.66602 27.6855-19.9219 27.6855-35.1562C27.6855-42.334 30.5176-49.2188 35.5957-54.4922C36.1328-55.0293 36.2793-55.8105 35.791-56.2988C35.3027-56.7871 34.5703-56.8359 33.9355-56.2012C28.3691-50.4883 25.293-42.9688 25.293-35.1562ZM58.6914-32.373C60.4492-34.2773 60.0098-36.7676 57.959-38.2324L42.7734-49.3652C41.8457-50.0488 41.0645-49.2188 41.748-48.291L52.8809-33.1543C54.4434-31.0547 56.8359-30.6152 58.6914-32.373Z"/>
  </g>
  <g id="Black-S" transform="matrix(1 0 0 1 2885.5 696)">
   <path d="M25 2.92969L70.8008 2.92969C80.3711 2.92969 86.0352-2.73438 86.0352-12.3047L86.0352-58.1055C86.0352-67.6758 80.3711-73.3398 70.8008-73.3398L25-73.3398C15.4297-73.3398 9.76562-67.6758 9.76562-58.1055L9.76562-12.3047C9.76562-2.73438 15.4297 2.92969 25 2.92969ZM27.2461-11.2305C25-11.2305 23.9258-12.1094 23.9258-14.5508L23.9258-55.8594C23.9258-58.3008 25-59.1797 27.2461-59.1797L68.5547-59.1797C70.8008-59.1797 71.875-58.3008 71.875-55.8594L71.875-14.5508C71.875-12.1094 70.8008-11.2305 68.5547-11.2305ZM28.1738-35.2539C28.1738-24.1699 36.8164-15.5273 47.9004-15.5273C58.9844-15.5273 67.627-24.1699 67.627-35.2539C67.627-46.3379 58.9844-54.9805 47.9004-54.9805C45.5566-54.9805 43.8477-53.4668 43.8477-51.3184L43.8477-45.9961C43.8477-44.043 45.4102-42.4805 47.4121-42.4805C49.3652-42.4805 50.8789-44.043 50.8789-45.9961L50.8789-46.6797C55.8105-45.3613 59.2773-40.5273 59.2773-35.2539C59.2773-28.9551 54.1992-23.877 47.9004-23.877C41.6016-23.877 36.5234-28.9551 36.5234-35.2539C36.5234-37.4023 37.207-39.5996 38.4277-41.5039C40.0391-44.1406 40.0391-45.9961 38.3301-47.6074C36.3281-49.4141 33.3984-48.877 31.6895-46.4355C29.3945-43.1641 28.1738-39.209 28.1738-35.2539ZM51.3672-31.2012C53.5156-33.3984 53.2227-37.0117 50.6348-38.2812L43.6523-41.748C41.6016-42.7734 39.5508-41.2109 40.8203-38.8184L44.3848-32.0312C45.752-29.4434 49.2676-29.1016 51.3672-31.2012Z"/>
  </g>
  <g id="Heavy-S" transform="matrix(1 0 0 1 2589.4 696)">
   <path d="M24.3652 2.34375L70.2637 2.34375C79.541 2.34375 84.8145-2.97852 84.8145-12.207L84.8145-58.2031C84.8145-67.4316 79.541-72.7539 70.2637-72.7539L24.3652-72.7539C15.0879-72.7539 9.76562-67.4316 9.76562-58.2031L9.76562-12.207C9.76562-2.97852 15.0879 2.34375 24.3652 2.34375ZM26.0742-10.1562C23.5352-10.1562 22.2656-11.2793 22.2656-14.0137L22.2656-56.3965C22.2656-59.1309 23.5352-60.2539 26.0742-60.2539L68.5059-60.2539C71.0449-60.2539 72.3633-59.1309 72.3633-56.3965L72.3633-14.0137C72.3633-11.2793 71.0449-10.1562 68.5059-10.1562ZM27.002-35.2539C27.002-23.9258 35.9863-14.9902 47.3145-14.9902C58.6426-14.9902 67.5781-23.9258 67.5781-35.2539C67.5781-46.582 58.6426-55.5176 47.3145-55.5176C45.1172-55.5176 43.5059-54.1016 43.5059-52.002L43.5059-46.3379C43.5059-44.4336 45.0195-42.9688 46.9238-42.9688C48.7793-42.9688 50.2441-44.4336 50.2441-46.3379L50.2441-47.6562C55.7617-46.3379 59.7168-41.1133 59.7168-35.2539C59.7168-28.3691 54.1992-22.8516 47.3145-22.8516C40.4297-22.8516 34.8633-28.3691 34.8633-35.2539C34.8633-37.793 35.6934-40.2832 37.1582-42.3828C38.6719-44.7266 38.6719-46.5332 37.0605-48.0957C35.2539-49.8047 32.5195-49.3164 30.9082-47.1191C28.3691-43.6523 27.002-39.4531 27.002-35.2539ZM50.8301-31.2988C52.9297-33.3984 52.5879-36.8652 50.0977-38.1836L42.4316-42.3828C40.4297-43.4082 38.4766-41.8945 39.7461-39.6484L44.043-32.1289C45.4102-29.5898 48.7793-29.248 50.8301-31.2988Z"/>
  </g>
  <g id="Bold-S" transform="matrix(1 0 0 1 2293.35 696)">
   <path d="M23.6328 1.66016L69.6289 1.66016C78.6133 1.66016 83.4961-3.22266 83.4961-12.1094L83.4961-58.3008C83.4961-67.1875 78.6133-72.0703 69.6289-72.0703L23.6328-72.0703C14.6973-72.0703 9.76562-67.1875 9.76562-58.3008L9.76562-12.1094C9.76562-3.22266 14.6973 1.66016 23.6328 1.66016ZM24.8047-8.93555C21.9238-8.93555 20.3613-10.3516 20.3613-13.4277L20.3613-56.9824C20.3613-60.0586 21.9238-61.4746 24.8047-61.4746L68.457-61.4746C71.3379-61.4746 72.9004-60.0586 72.9004-56.9824L72.9004-13.4277C72.9004-10.3516 71.3379-8.93555 68.457-8.93555ZM25.7324-35.2539C25.7324-23.6816 35.0098-14.3555 46.6309-14.3555C58.2031-14.3555 67.5293-23.6816 67.5293-35.2539C67.5293-46.8262 58.2031-56.1523 46.6309-56.1523C44.5801-56.1523 43.1641-54.7852 43.1641-52.832L43.1641-46.7285C43.1641-44.873 44.5801-43.457 46.3867-43.457C48.1445-43.457 49.5117-44.9219 49.5117-46.7285L49.5117-48.7305C55.7129-47.4609 60.2051-41.7969 60.2051-35.2539C60.2051-27.7344 54.1504-21.6797 46.6309-21.6797C39.1113-21.6797 33.0078-27.7344 33.0566-35.2539C33.0566-38.1836 33.9844-41.0156 35.791-43.3594C37.1094-45.4102 37.1094-47.168 35.6934-48.6328C34.0332-50.1953 31.543-49.8535 30.0293-47.8516C27.2461-44.2383 25.7324-39.7461 25.7324-35.2539ZM50.2441-31.3965C52.2461-33.4473 51.9043-36.6699 49.4629-38.0371L41.0156-43.0664C39.1113-44.1406 37.3047-42.627 38.5254-40.5273L43.6035-32.1777C45.0684-29.7363 48.2422-29.3945 50.2441-31.3965Z"/>
  </g>
  <g id="Semibold-S" transform="matrix(1 0 0 1 1997.1 696)">
   <path d="M23.0957 1.17188L69.1895 1.17188C77.9297 1.17188 82.5684-3.36914 82.5684-12.0117L82.5684-58.3984C82.5684-67.041 77.9297-71.582 69.1895-71.582L23.0957-71.582C14.4043-71.582 9.76562-67.041 9.76562-58.3984L9.76562-12.0117C9.76562-3.36914 14.4043 1.17188 23.0957 1.17188ZM23.877-8.10547C20.752-8.10547 19.0918-9.7168 19.0918-12.9883L19.0918-57.4219C19.0918-60.6934 20.752-62.3047 23.877-62.3047L68.4082-62.3047C71.5332-62.3047 73.2422-60.6934 73.2422-57.4219L73.2422-12.9883C73.2422-9.7168 71.5332-8.10547 68.4082-8.10547ZM24.8047-35.2539C24.8047-23.4863 34.375-13.916 46.1426-13.916C57.959-13.916 67.4805-23.4863 67.4805-35.2539C67.4805-47.0215 57.959-56.5918 46.1914-56.5918C44.2383-56.5918 42.9199-55.2734 42.9199-53.3691L42.9199-46.9727C42.9199-45.2148 44.2383-43.8477 45.9961-43.8477C47.7051-43.8477 49.0234-45.2148 49.0234-46.9727L49.0234-49.5117C55.6641-48.1934 60.5469-42.2852 60.5469-35.2539C60.5469-27.2461 54.1504-20.8496 46.1426-20.8496C38.1836-20.8496 31.7383-27.2461 31.7871-35.2539C31.7871-38.4766 32.8125-41.5527 34.8145-44.043C36.0352-45.8496 36.0352-47.6074 34.7168-48.9746C33.2031-50.4883 30.8594-50.1953 29.4434-48.3398C26.4648-44.6289 24.8047-39.9414 24.8047-35.2539ZM49.8047-31.4453C51.8066-33.4473 51.4648-36.5723 49.0723-37.9883L40.0879-43.5059C38.2324-44.6289 36.5234-43.1152 37.6953-41.1621L43.3105-32.2266C44.8242-29.834 47.8516-29.4922 49.8047-31.4453Z"/>
  </g>
  <g id="Medium-S" transform="matrix(1 0 0 1 1700.75 696)">
   <path d="M22.7051 0.830078L68.8965 0.830078C77.4414 0.830078 81.8359-3.51562 81.8359-11.9629L81.8359-58.4473C81.8359-66.8945 77.4414-71.2402 68.8965-71.2402L22.7051-71.2402C14.209-71.2402 9.76562-66.8945 9.76562-58.4473L9.76562-11.9629C9.76562-3.51562 14.209 0.830078 22.7051 0.830078ZM23.1934-7.4707C19.9219-7.4707 18.0664-9.22852 18.0664-12.6953L18.0664-57.7148C18.0664-61.1816 19.9219-62.9395 23.1934-62.9395L68.4082-62.9395C71.6797-62.9395 73.5352-61.1816 73.5352-57.7148L73.5352-12.6953C73.5352-9.22852 71.6797-7.4707 68.4082-7.4707ZM24.1211-35.2539C24.1211-23.3398 33.8867-13.5742 45.8008-13.5742C57.7148-13.5742 67.4805-23.3398 67.4805-35.2539C67.4805-47.1191 57.7148-56.9336 45.8496-56.9336C43.9941-56.9336 42.7246-55.6641 42.7246-53.7598L42.7246-47.168C42.7246-45.4102 43.9941-44.0918 45.752-44.0918C47.4121-44.0918 48.6816-45.459 48.6816-47.168L48.6816-50.0488C55.6641-48.7793 60.791-42.627 60.791-35.2539C60.791-26.9043 54.1016-20.2637 45.8008-20.2637C37.5-20.2637 30.7617-26.9043 30.8105-35.2539C30.8105-38.6719 31.9336-41.9434 34.082-44.5801C35.2539-46.1914 35.2051-47.9492 33.9844-49.2676C32.5195-50.6836 30.3223-50.4395 28.9551-48.7305C25.8789-44.9219 24.1211-40.0879 24.1211-35.2539ZM49.5117-31.4941C51.416-33.4961 51.0742-36.4746 48.7305-37.8906L39.3555-43.8965C37.5488-45.0195 35.8887-43.5059 37.0605-41.6504L43.1152-32.2754C44.6289-29.9316 47.5586-29.5898 49.5117-31.4941Z"/>
  </g>
  <g id="Regular-S" transform="matrix(1 0 0 1 1404.51 696)">
   <path d="M22.2168 0.390625L68.457 0.390625C76.8066 0.390625 80.9082-3.71094 80.9082-11.9141L80.9082-58.4961C80.9082-66.6992 76.8066-70.8008 68.457-70.8008L22.2168-70.8008C13.916-70.8008 9.76562-66.6992 9.76562-58.4961L9.76562-11.9141C9.76562-3.71094 13.916 0.390625 22.2168 0.390625ZM22.3145-6.68945C18.7988-6.68945 16.7969-8.54492 16.7969-12.2559L16.7969-58.1543C16.7969-61.8164 18.7988-63.7207 22.3145-63.7207L68.3594-63.7207C71.875-63.7207 73.877-61.8164 73.877-58.1543L73.877-12.2559C73.877-8.54492 71.875-6.68945 68.3594-6.68945ZM23.2422-35.2539C23.2422-23.1445 33.252-13.1348 45.3613-13.1348C57.4707-13.1348 67.4316-23.1445 67.4316-35.2539C67.4316-47.3145 57.4707-57.3242 45.4102-57.3242C43.6035-57.3242 42.4805-56.1035 42.4805-54.2969L42.4805-47.4121C42.4805-45.7031 43.7012-44.4336 45.3613-44.4336C46.9727-44.4336 48.1934-45.752 48.1934-47.4121L48.1934-50.8301C55.6152-49.5605 61.1328-43.0664 61.1328-35.2539C61.1328-26.4648 54.1016-19.4336 45.3613-19.4336C36.5723-19.4336 29.4922-26.4648 29.541-35.2539C29.541-38.9648 30.7617-42.4316 33.1055-45.2637C34.1797-46.6797 34.1797-48.3398 33.0078-49.6094C31.6895-50.9766 29.6387-50.8301 28.3691-49.2676C25.0977-45.3125 23.2422-40.2832 23.2422-35.2539ZM49.1211-31.5918C50.9766-33.4961 50.6348-36.3281 48.3398-37.8418L38.4277-44.3359C36.6699-45.5078 35.1074-43.9941 36.2305-42.2852L42.8223-32.3242C44.3848-30.0293 47.168-29.6875 49.1211-31.5918Z"/>
  </g>
  <g id="Light-S" transform="matrix(1 0 0 1 1108.46 696)">
   <path d="M21.3867-0.292969L67.9688-0.292969C75.7324-0.292969 79.5898-4.15039 79.5898-11.7676L79.5898-58.5938C79.5898-66.2109 75.7324-70.1172 67.9688-70.1172L21.3867-70.1172C13.6719-70.1172 9.76562-66.2598 9.76562-58.5938L9.76562-11.7676C9.76562-4.15039 13.6719-0.292969 21.3867-0.292969ZM21.4844-5.71289C17.4316-5.71289 15.1855-7.86133 15.1855-12.0605L15.1855-58.3008C15.1855-62.5 17.4316-64.6973 21.4844-64.6973L67.8711-64.6973C71.875-64.6973 74.1699-62.5 74.1699-58.3008L74.1699-12.0605C74.1699-7.86133 71.875-5.71289 67.8711-5.71289ZM22.168-35.2051C22.168-22.8516 32.3242-12.6953 44.6777-12.6953C57.0312-12.6953 67.1875-22.8516 67.1875-35.2051C67.1875-47.5586 57.0312-57.7637 44.7266-57.7637C43.1641-57.7637 42.2363-56.7871 42.2363-55.2246L42.2363-47.4609C42.2363-46.1426 43.2129-45.166 44.5312-45.166C45.8008-45.166 46.7285-46.1914 46.7285-47.4609L46.7285-52.6367C55.5176-51.709 62.3047-44.2871 62.3047-35.2051C62.3047-25.4883 54.4434-17.627 44.6777-17.627C34.9121-17.627 27.0508-25.4883 27.0996-35.2051C27.0996-39.5508 28.6133-43.6035 31.4941-46.8262C32.373-47.9492 32.373-49.3164 31.4941-50.293C30.4688-51.3184 28.8574-51.2207 27.832-50C24.1699-45.8984 22.168-40.5762 22.168-35.2051ZM48.1445-32.0312C49.8535-33.7891 49.5117-36.377 47.4121-37.7441L36.8652-44.9707C35.4492-45.8984 34.1797-44.6777 35.1562-43.2617L42.3828-32.7637C43.8477-30.6152 46.3379-30.2734 48.1445-32.0312Z"/>
  </g>
  <g id="Thin-S" transform="matrix(1 0 0 1 812.599 696)">
   <path d="M20.3125-1.12305L67.334-1.12305C74.2676-1.12305 77.8809-4.78516 77.8809-11.6211L77.8809-58.6914C77.8809-65.5762 74.2676-69.2383 67.334-69.2383L20.3125-69.2383C13.3789-69.2383 9.76562-65.625 9.76562-58.6914L9.76562-11.6211C9.76562-4.6875 13.3789-1.12305 20.3125-1.12305ZM20.4102-4.44336C15.625-4.44336 13.0859-6.93359 13.0859-11.8164L13.0859-58.5449C13.0859-63.3789 15.625-65.918 20.4102-65.918L67.2363-65.918C71.875-65.918 74.5605-63.3789 74.5605-58.5449L74.5605-11.8164C74.5605-6.93359 71.875-4.44336 67.2363-4.44336ZM20.752-35.2051C20.752-22.5098 31.1523-12.1582 43.7988-12.1582C56.4941-12.1582 66.8945-22.5098 66.8945-35.2051C66.8945-47.8516 56.4941-58.252 43.8477-58.252C42.5781-58.252 41.8945-57.6172 41.8945-56.3965L41.8945-47.5586C41.8945-46.6797 42.5293-46.0449 43.4082-46.0449C44.2383-46.0449 44.873-46.7285 44.873-47.5586L44.873-55.0781C55.4199-54.4922 63.7695-45.8496 63.7695-35.2051C63.7695-24.1211 54.834-15.2344 43.7988-15.2344C32.7637-15.2344 23.877-24.1211 23.877-35.2051C23.877-40.2832 25.8301-45.166 29.3457-48.9258C29.9316-49.6094 30.0293-50.5371 29.4434-51.1719C28.8086-51.8066 27.832-51.8066 27.0996-50.9766C22.998-46.6797 20.752-41.0156 20.752-35.2051ZM46.875-32.5684C48.3398-34.2285 47.998-36.377 46.2402-37.6465L34.8633-45.752C33.8867-46.4844 33.0078-45.5566 33.6914-44.5801L41.8457-33.252C43.1152-31.4453 45.2637-31.1035 46.875-32.5684Z"/>
  </g>
  <g id="Ultralight-S" transform="matrix(1 0 0 1 516.352 696)">
   <path d="M19.7754-1.5625L66.9922-1.5625C73.5352-1.5625 76.9531-5.12695 76.9531-11.5234L76.9531-58.7891C76.9531-65.2344 73.5352-68.75 66.9922-68.75L19.7754-68.75C13.2324-68.75 9.76562-65.2832 9.76562-58.7891L9.76562-11.5234C9.76562-5.0293 13.2324-1.5625 19.7754-1.5625ZM19.873-3.75977C14.6484-3.75977 11.9629-6.44531 11.9629-11.6699L11.9629-58.6426C11.9629-63.8672 14.6484-66.5527 19.873-66.5527L66.8945-66.5527C71.875-66.5527 74.7559-63.8672 74.7559-58.6426L74.7559-11.6699C74.7559-6.44531 71.875-3.75977 66.8945-3.75977ZM20.0195-35.1562C20.0195-22.3145 30.5176-11.8164 43.3594-11.8164C56.2012-11.8164 66.748-22.3145 66.748-35.1562C66.748-47.998 56.2012-58.5449 43.3594-58.5449C42.2363-58.5449 41.748-58.0566 41.748-57.0312L41.748-47.6074C41.748-46.9727 42.1875-46.5332 42.8223-46.5332C43.457-46.5332 43.8965-47.0215 43.8965-47.6074L43.8965-56.2988C55.3711-55.957 64.5508-46.6797 64.5508-35.1562C64.5508-23.4375 55.0781-14.0137 43.3594-14.0137C31.6406-14.0137 22.2168-23.4375 22.2168-35.1562C22.2168-40.6738 24.3652-45.9473 28.2227-50C28.7109-50.4883 28.8086-51.1719 28.3691-51.6113C27.9297-52.0508 27.2949-52.0996 26.709-51.5137C22.4121-47.0703 20.0195-41.2109 20.0195-35.1562ZM46.1914-32.9102C47.6074-34.4238 47.2656-36.4258 45.6055-37.5977L33.8379-46.1914C33.0566-46.7773 32.373-46.0449 32.959-45.2637L41.5039-33.5449C42.7734-31.8359 44.7266-31.4941 46.1914-32.9102Z"/>
  </g>
 </g>
</svg>
