<?xml version="1.0" encoding="UTF-8"?>
<!--Generator: Apple Native CoreSVG 149-->
<!DOCTYPE svg
PUBLIC "-//W3C//DTD SVG 1.1//EN"
       "http://www.w3.org/Graphics/SVG/1.1/DTD/svg11.dtd">
<svg version="1.1" xmlns="http://www.w3.org/2000/svg" xmlns:xlink="http://www.w3.org/1999/xlink" width="3300" height="2200">
 <!--glyph: "uni1005D7.medium", point size: 100.000000, font version: "Version 16.0d18e1", template writer version: "8"-->
 <g id="Notes">
  <rect height="2200" id="artboard" style="fill:white;opacity:1" width="3300" x="0" y="0"/>
  <line id="" style="fill:none;stroke:black;opacity:1;stroke-width:0.5;" x1="263" x2="3036" y1="292" y2="292"/>
  <text style="stroke:none;fill:black;font-family:-apple-system,&quot;SF Pro Display&quot;,&quot;SF Pro Text&quot;,Helvetica,sans-serif;font-weight:bold;" transform="matrix(1 0 0 1 263 322)">Weight/Scale Variations</text>
  <text style="stroke:none;fill:black;font-family:-apple-system,&quot;SF Pro Display&quot;,&quot;SF Pro Text&quot;,Helvetica,sans-serif;text-anchor:middle;" transform="matrix(1 0 0 1 559.711 322)">Ultralight</text>
  <text style="stroke:none;fill:black;font-family:-apple-system,&quot;SF Pro Display&quot;,&quot;SF Pro Text&quot;,Helvetica,sans-serif;text-anchor:middle;" transform="matrix(1 0 0 1 856.422 322)">Thin</text>
  <text style="stroke:none;fill:black;font-family:-apple-system,&quot;SF Pro Display&quot;,&quot;SF Pro Text&quot;,Helvetica,sans-serif;text-anchor:middle;" transform="matrix(1 0 0 1 1153.13 322)">Light</text>
  <text style="stroke:none;fill:black;font-family:-apple-system,&quot;SF Pro Display&quot;,&quot;SF Pro Text&quot;,Helvetica,sans-serif;text-anchor:middle;" transform="matrix(1 0 0 1 1449.84 322)">Regular</text>
  <text style="stroke:none;fill:black;font-family:-apple-system,&quot;SF Pro Display&quot;,&quot;SF Pro Text&quot;,Helvetica,sans-serif;text-anchor:middle;" transform="matrix(1 0 0 1 1746.56 322)">Medium</text>
  <text style="stroke:none;fill:black;font-family:-apple-system,&quot;SF Pro Display&quot;,&quot;SF Pro Text&quot;,Helvetica,sans-serif;text-anchor:middle;" transform="matrix(1 0 0 1 2043.27 322)">Semibold</text>
  <text style="stroke:none;fill:black;font-family:-apple-system,&quot;SF Pro Display&quot;,&quot;SF Pro Text&quot;,Helvetica,sans-serif;text-anchor:middle;" transform="matrix(1 0 0 1 2339.98 322)">Bold</text>
  <text style="stroke:none;fill:black;font-family:-apple-system,&quot;SF Pro Display&quot;,&quot;SF Pro Text&quot;,Helvetica,sans-serif;text-anchor:middle;" transform="matrix(1 0 0 1 2636.69 322)">Heavy</text>
  <text style="stroke:none;fill:black;font-family:-apple-system,&quot;SF Pro Display&quot;,&quot;SF Pro Text&quot;,Helvetica,sans-serif;text-anchor:middle;" transform="matrix(1 0 0 1 2933.4 322)">Black</text>
  <line id="" style="fill:none;stroke:black;opacity:1;stroke-width:0.5;" x1="263" x2="3036" y1="1903" y2="1903"/>
  <g id="" transform="matrix(1 0 0 1 263 1933)">
   <path d="M9.24805 0.830078C13.5547 0.830078 17.1387-2.74414 17.1387-7.05078C17.1387-11.3574 13.5449-14.9316 9.23828-14.9316C4.94141-14.9316 1.36719-11.3574 1.36719-7.05078C1.36719-2.74414 4.95117 0.830078 9.24805 0.830078ZM9.24805-0.654297C5.70312-0.654297 2.87109-3.49609 2.87109-7.05078C2.87109-10.6055 5.69336-13.4473 9.23828-13.4473C12.793-13.4473 15.6348-10.6055 15.6445-7.05078C15.6543-3.49609 12.8027-0.654297 9.24805-0.654297ZM6.39648-6.31836L8.50586-6.31836L8.50586-4.19922C8.50586-3.75977 8.79883-3.45703 9.22852-3.45703C9.67773-3.45703 9.9707-3.75977 9.9707-4.19922L9.9707-6.31836L12.0996-6.31836C12.5391-6.31836 12.8418-6.61133 12.8418-7.04102C12.8418-7.48047 12.5391-7.7832 12.0996-7.7832L9.9707-7.7832L9.9707-9.89258C9.9707-10.3418 9.67773-10.6445 9.22852-10.6445C8.79883-10.6445 8.50586-10.3418 8.50586-9.89258L8.50586-7.7832L6.39648-7.7832C5.94727-7.7832 5.64453-7.48047 5.64453-7.04102C5.64453-6.61133 5.94727-6.31836 6.39648-6.31836Z"/>
  </g>
  <g id="" transform="matrix(1 0 0 1 281.506 1933)">
   <path d="M11.709 2.91016C17.1582 2.91016 21.6699-1.61133 21.6699-7.05078C21.6699-12.5 17.1484-17.0117 11.6992-17.0117C6.25977-17.0117 1.74805-12.5 1.74805-7.05078C1.74805-1.61133 6.26953 2.91016 11.709 2.91016ZM11.709 1.25C7.09961 1.25 3.41797-2.44141 3.41797-7.05078C3.41797-11.6602 7.08984-15.3516 11.6992-15.3516C16.3086-15.3516 20-11.6602 20.0098-7.05078C20.0195-2.44141 16.3184 1.25 11.709 1.25ZM7.98828-6.23047L10.8789-6.23047L10.8789-3.32031C10.8789-2.83203 11.2109-2.5 11.6895-2.5C12.1777-2.5 12.5195-2.83203 12.5195-3.32031L12.5195-6.23047L15.4297-6.23047C15.918-6.23047 16.25-6.5625 16.25-7.04102C16.25-7.5293 15.918-7.87109 15.4297-7.87109L12.5195-7.87109L12.5195-10.7617C12.5195-11.2695 12.1777-11.6016 11.6895-11.6016C11.2109-11.6016 10.8789-11.2598 10.8789-10.7617L10.8789-7.87109L7.98828-7.87109C7.48047-7.87109 7.14844-7.5293 7.14844-7.04102C7.14844-6.5625 7.49023-6.23047 7.98828-6.23047Z"/>
  </g>
  <g id="" transform="matrix(1 0 0 1 304.924 1933)">
   <path d="M14.9707 5.66406C21.9336 5.66406 27.6953-0.0976562 27.6953-7.05078C27.6953-14.0137 21.9238-19.7754 14.9609-19.7754C8.00781-19.7754 2.25586-14.0137 2.25586-7.05078C2.25586-0.0976562 8.01758 5.66406 14.9707 5.66406ZM14.9707 3.84766C8.93555 3.84766 4.08203-1.01562 4.08203-7.05078C4.08203-13.0957 8.92578-17.9492 14.9609-17.9492C21.0059-17.9492 25.8594-13.0957 25.8691-7.05078C25.8789-1.01562 21.0156 3.84766 14.9707 3.84766ZM10.0586-6.14258L14.0625-6.14258L14.0625-2.12891C14.0625-1.5918 14.4336-1.2207 14.9512-1.2207C15.4883-1.2207 15.8594-1.5918 15.8594-2.12891L15.8594-6.14258L19.8828-6.14258C20.4102-6.14258 20.791-6.51367 20.791-7.03125C20.791-7.56836 20.4199-7.94922 19.8828-7.94922L15.8594-7.94922L15.8594-11.9531C15.8594-12.5098 15.4883-12.8809 14.9512-12.8809C14.4336-12.8809 14.0625-12.5 14.0625-11.9531L14.0625-7.94922L10.0586-7.94922C9.50195-7.94922 9.13086-7.56836 9.13086-7.03125C9.13086-6.51367 9.51172-6.14258 10.0586-6.14258Z"/>
  </g>
  <text style="stroke:none;fill:black;font-family:-apple-system,&quot;SF Pro Display&quot;,&quot;SF Pro Text&quot;,Helvetica,sans-serif;font-weight:bold;" transform="matrix(1 0 0 1 263 1953)">Design Variations</text>
  <text style="stroke:none;fill:black;font-family:-apple-system,&quot;SF Pro Display&quot;,&quot;SF Pro Text&quot;,Helvetica,sans-serif;" transform="matrix(1 0 0 1 263 1971)">Symbols are supported in up to nine weights and three scales.</text>
  <text style="stroke:none;fill:black;font-family:-apple-system,&quot;SF Pro Display&quot;,&quot;SF Pro Text&quot;,Helvetica,sans-serif;" transform="matrix(1 0 0 1 263 1989)">For optimal layout with text and other symbols, vertically align</text>
  <text style="stroke:none;fill:black;font-family:-apple-system,&quot;SF Pro Display&quot;,&quot;SF Pro Text&quot;,Helvetica,sans-serif;" transform="matrix(1 0 0 1 263 2007)">symbols with the adjacent text.</text>
  <line id="" style="fill:none;stroke:#00AEEF;stroke-width:0.5;opacity:1.0;" x1="776" x2="776" y1="1919" y2="1933"/>
  <g id="" transform="matrix(1 0 0 1 776 1933)">
   <path d="M3.31055 0.126953C3.82812 0.126953 4.08203-0.0683594 4.26758-0.605469L5.52734-4.0625L11.2891-4.0625L12.5488-0.605469C12.7344-0.0683594 12.9883 0.126953 13.4961 0.126953C14.0137 0.126953 14.3457-0.185547 14.3457-0.673828C14.3457-0.839844 14.3164-0.986328 14.2383-1.20117L9.6582-13.3887C9.43359-13.9941 9.0332-14.2871 8.4082-14.2871C7.80273-14.2871 7.39258-13.9941 7.17773-13.3984L2.59766-1.19141C2.51953-0.976562 2.49023-0.830078 2.49023-0.664062C2.49023-0.175781 2.80273 0.126953 3.31055 0.126953ZM6.00586-5.53711L8.37891-12.1094L8.42773-12.1094L10.8008-5.53711Z"/>
  </g>
  <line id="" style="fill:none;stroke:#00AEEF;stroke-width:0.5;opacity:1.0;" x1="792.836" x2="792.836" y1="1919" y2="1933"/>
  <text style="stroke:none;fill:black;font-family:-apple-system,&quot;SF Pro Display&quot;,&quot;SF Pro Text&quot;,Helvetica,sans-serif;font-weight:bold;" transform="matrix(1 0 0 1 776 1953)">Margins</text>
  <text style="stroke:none;fill:black;font-family:-apple-system,&quot;SF Pro Display&quot;,&quot;SF Pro Text&quot;,Helvetica,sans-serif;" transform="matrix(1 0 0 1 776 1971)">Leading and trailing margins on the left and right side of each symbol</text>
  <text style="stroke:none;fill:black;font-family:-apple-system,&quot;SF Pro Display&quot;,&quot;SF Pro Text&quot;,Helvetica,sans-serif;" transform="matrix(1 0 0 1 776 1989)">can be adjusted by modifying the x-location of the margin guidelines.</text>
  <text style="stroke:none;fill:black;font-family:-apple-system,&quot;SF Pro Display&quot;,&quot;SF Pro Text&quot;,Helvetica,sans-serif;" transform="matrix(1 0 0 1 776 2007)">Modifications are automatically applied proportionally to all</text>
  <text style="stroke:none;fill:black;font-family:-apple-system,&quot;SF Pro Display&quot;,&quot;SF Pro Text&quot;,Helvetica,sans-serif;" transform="matrix(1 0 0 1 776 2025)">scales and weights.</text>
  <g id="" transform="matrix(1 0 0 1 1289 1933)">
   <path d="M2.8418 1.86523L4.54102 3.57422C5.40039 4.44336 6.38672 4.38477 7.31445 3.35938L17.4902-7.85156C17.7539-7.76367 18.0273-7.7832 18.3398-7.8418L19.4043-8.03711L20.0684-7.36328L20.0293-6.80664C19.9902-6.30859 20.1172-5.92773 20.6055-5.44922L21.3672-4.70703C21.8457-4.22852 22.4609-4.19922 22.9297-4.66797L25.8398-7.58789C26.3086-8.05664 26.2891-8.65234 25.8105-9.13086L25.0391-9.89258C24.5605-10.3711 24.1895-10.5273 23.7109-10.4883L23.1348-10.4395L22.4902-11.0742L22.7344-12.1973C22.8613-12.7637 22.7051-13.2031 22.1191-13.7891L19.9219-15.9766C16.582-19.2969 12.1484-19.2188 9.25781-16.3281C8.83789-15.918 8.80859-15.3418 9.04297-14.9512C9.27734-14.5898 9.73633-14.3555 10.3809-14.5215C11.8457-14.8633 13.3691-14.9219 14.7949-13.9844L14.209-12.5293C14.0137-12.0508 13.9844-11.6504 14.1113-11.2891L3.04688-0.898438C2.06055 0.0195312 1.98242 0.996094 2.8418 1.86523ZM10.752-15.957C13.1836-17.7344 16.4746-17.4316 18.7012-15.2051L21.1328-12.793C21.3672-12.5586 21.4062-12.373 21.3379-12.0312L21.0156-10.5469L22.5195-9.0625L23.5059-9.12109C23.7598-9.13086 23.8379-9.11133 24.0332-8.91602L24.6094-8.33984L22.168-5.89844L21.5918-6.47461C21.3965-6.66992 21.3672-6.74805 21.377-7.01172L21.4453-7.98828L19.9512-9.47266L18.4277-9.21875C18.1055-9.15039 17.959-9.17969 17.7148-9.41406L15.7129-11.416C15.459-11.6504 15.4297-11.8164 15.5859-12.1875L16.4648-14.2773C14.9023-15.7324 12.8711-16.3574 10.8398-15.7617C10.6836-15.7227 10.625-15.8496 10.752-15.957ZM5.27344 2.30469L4.10156 1.14258C3.63281 0.683594 3.74023 0.341797 4.14062-0.0195312L14.9512-10.1953L16.416-8.71094L6.42578 2.27539C6.07422 2.67578 5.74219 2.77344 5.27344 2.30469Z"/>
  </g>
  <text style="stroke:none;fill:black;font-family:-apple-system,&quot;SF Pro Display&quot;,&quot;SF Pro Text&quot;,Helvetica,sans-serif;font-weight:bold;" transform="matrix(1 0 0 1 1289 1953)">Exporting</text>
  <text style="stroke:none;fill:black;font-family:-apple-system,&quot;SF Pro Display&quot;,&quot;SF Pro Text&quot;,Helvetica,sans-serif;" transform="matrix(1 0 0 1 1289 1971)">Symbols should be outlined when exporting to ensure the</text>
  <text style="stroke:none;fill:black;font-family:-apple-system,&quot;SF Pro Display&quot;,&quot;SF Pro Text&quot;,Helvetica,sans-serif;" transform="matrix(1 0 0 1 1289 1989)">design is preserved when submitting to Xcode.</text>
  <text id="template-version" style="stroke:none;fill:black;font-family:-apple-system,&quot;SF Pro Display&quot;,&quot;SF Pro Text&quot;,Helvetica,sans-serif;text-anchor:end;" transform="matrix(1 0 0 1 3036 1933)">Template v.2.0</text>
  <text style="stroke:none;fill:black;font-family:-apple-system,&quot;SF Pro Display&quot;,&quot;SF Pro Text&quot;,Helvetica,sans-serif;text-anchor:end;" transform="matrix(1 0 0 1 3036 1951)">Requires Xcode 12 or greater</text>
  <text style="stroke:none;fill:black;font-family:-apple-system,&quot;SF Pro Display&quot;,&quot;SF Pro Text&quot;,Helvetica,sans-serif;text-anchor:end;" transform="matrix(1 0 0 1 3036 1969)">Generated from dollarsign.square</text>
  <text style="stroke:none;fill:black;font-family:-apple-system,&quot;SF Pro Display&quot;,&quot;SF Pro Text&quot;,Helvetica,sans-serif;text-anchor:end;" transform="matrix(1 0 0 1 3036 1987)">Typeset at 100 points</text>
  <text style="stroke:none;fill:black;font-family:-apple-system,&quot;SF Pro Display&quot;,&quot;SF Pro Text&quot;,Helvetica,sans-serif;" transform="matrix(1 0 0 1 263 726)">Small</text>
  <text style="stroke:none;fill:black;font-family:-apple-system,&quot;SF Pro Display&quot;,&quot;SF Pro Text&quot;,Helvetica,sans-serif;" transform="matrix(1 0 0 1 263 1156)">Medium</text>
  <text style="stroke:none;fill:black;font-family:-apple-system,&quot;SF Pro Display&quot;,&quot;SF Pro Text&quot;,Helvetica,sans-serif;" transform="matrix(1 0 0 1 263 1586)">Large</text>
 </g>
 <g id="Guides">
  <g id="H-reference" style="fill:#27AAE1;stroke:none;" transform="matrix(1 0 0 1 339 696)">
   <path d="M0.976562 0L3.66211 0L12.9883-24.4629L45.752-24.4629L55.127 0L57.7637 0L30.6152-70.459L28.125-70.459ZM29.3457-67.1387L29.4434-67.1387L44.873-26.709L13.8672-26.709Z"/>
  </g>
  <line id="Baseline-S" style="fill:none;stroke:#27AAE1;opacity:1;stroke-width:0.5;" x1="263" x2="3036" y1="696" y2="696"/>
  <line id="Capline-S" style="fill:none;stroke:#27AAE1;opacity:1;stroke-width:0.5;" x1="263" x2="3036" y1="625.541" y2="625.541"/>
  <g id="H-reference" style="fill:#27AAE1;stroke:none;" transform="matrix(1 0 0 1 339 1126)">
   <path d="M0.976562 0L3.66211 0L12.9883-24.4629L45.752-24.4629L55.127 0L57.7637 0L30.6152-70.459L28.125-70.459ZM29.3457-67.1387L29.4434-67.1387L44.873-26.709L13.8672-26.709Z"/>
  </g>
  <line id="Baseline-M" style="fill:none;stroke:#27AAE1;opacity:1;stroke-width:0.5;" x1="263" x2="3036" y1="1126" y2="1126"/>
  <line id="Capline-M" style="fill:none;stroke:#27AAE1;opacity:1;stroke-width:0.5;" x1="263" x2="3036" y1="1055.54" y2="1055.54"/>
  <g id="H-reference" style="fill:#27AAE1;stroke:none;" transform="matrix(1 0 0 1 339 1556)">
   <path d="M0.976562 0L3.66211 0L12.9883-24.4629L45.752-24.4629L55.127 0L57.7637 0L30.6152-70.459L28.125-70.459ZM29.3457-67.1387L29.4434-67.1387L44.873-26.709L13.8672-26.709Z"/>
  </g>
  <line id="Baseline-L" style="fill:none;stroke:#27AAE1;opacity:1;stroke-width:0.5;" x1="263" x2="3036" y1="1556" y2="1556"/>
  <line id="Capline-L" style="fill:none;stroke:#27AAE1;opacity:1;stroke-width:0.5;" x1="263" x2="3036" y1="1485.54" y2="1485.54"/>
  <line id="left-margin" style="fill:none;stroke:#00AEEF;stroke-width:0.5;opacity:1.0;" x1="1392.45" x2="1392.45" y1="1030.79" y2="1150.12"/>
  <line id="right-margin" style="fill:none;stroke:#00AEEF;stroke-width:0.5;opacity:1.0;" x1="1507.24" x2="1507.24" y1="1030.79" y2="1150.12"/>
 </g>
 <g id="Symbols">
  <g id="Black-L" transform="matrix(1 0 0 1 2855.62 1556)">
   <path d="M39.9902 26.5137L115.576 26.5137C130.811 26.5137 139.502 17.8711 139.502 2.68555L139.502-73.0957C139.502-88.2812 130.811-96.875 115.576-96.875L39.9902-96.875C24.7559-96.875 16.0645-88.2812 16.0645-73.0957L16.0645 2.68555C16.0645 17.8711 24.7559 26.5137 39.9902 26.5137ZM42.6758 6.29883C38.4766 6.29883 36.3281 4.39453 36.3281-0.146484L36.3281-70.2148C36.3281-74.7559 38.4766-76.6602 42.6758-76.6602L112.842-76.6602C117.09-76.6602 119.238-74.7559 119.238-70.2148L119.238-0.146484C119.238 4.39453 117.09 6.29883 112.842 6.29883ZM77.7832-1.66016C79.2969-1.66016 80.4199-2.73438 80.4199-4.39453L80.4199-7.95898C92.041-8.88672 99.8047-15.2344 99.8047-25.0488C99.8047-33.8379 94.3848-38.5742 83.3496-40.7715L80.4199-41.3574L80.4199-51.1719C82.7637-50.6348 84.4238-49.3164 85.498-47.2168C87.1582-44.5801 89.209-43.2617 92.0898-43.2617C95.9473-43.2617 98.3398-45.4102 98.3398-48.6816C98.3398-49.6582 98.1445-50.6348 97.8516-51.5137C96.0449-57.1289 89.9414-61.7676 80.4199-62.5977L80.4199-66.4062C80.4199-68.0664 79.2969-69.1406 77.7832-69.1406C76.2695-69.1406 75.1953-68.0664 75.1953-66.4062L75.1953-62.5977C64.0625-61.8164 56.2012-55.5176 56.2012-45.8984C56.2012-37.1582 61.8652-32.2754 72.3633-30.0293L75.1953-29.4434L75.1953-19.2383C71.9727-19.7266 70.2148-21.2402 69.2871-23.2422C67.8711-25.9277 65.918-27.4414 62.8906-27.4414C58.6914-27.4414 56.3477-24.9512 56.3477-21.4355C56.3477-20.5078 56.4941-19.5312 56.9336-18.457C58.8379-13.5254 64.6484-8.54492 75.1953-7.95898L75.1953-4.39453C75.1953-2.73438 76.2695-1.66016 77.7832-1.66016ZM75.1953-42.627L74.7559-42.7246C71.582-43.5059 70.0684-44.9219 70.0684-47.0703C70.0684-49.3164 71.9727-51.0254 75.1953-51.3672ZM80.4199-28.2227L81.0547-28.0762C84.6191-27.2461 85.9863-25.9766 85.9863-23.6816C85.9863-21.1914 84.082-19.6777 80.4199-19.2383Z"/>
  </g>
  <g id="Heavy-L" transform="matrix(1 0 0 1 2559.93 1556)">
   <path d="M38.8184 25.4883L114.697 25.4883C129.346 25.4883 137.451 17.4316 137.451 2.88086L137.451-73.2422C137.451-87.793 129.346-95.8496 114.697-95.8496L38.8184-95.8496C24.2188-95.8496 16.0645-87.793 16.0645-73.2422L16.0645 2.88086C16.0645 17.4316 24.2188 25.4883 38.8184 25.4883ZM40.918 8.00781C36.084 8.00781 33.5938 5.71289 33.5938 0.585938L33.5938-70.9473C33.5938-76.0742 36.084-78.3691 40.918-78.3691L112.549-78.3691C117.383-78.3691 119.922-76.0742 119.922-70.9473L119.922 0.585938C119.922 5.71289 117.383 8.00781 112.549 8.00781ZM76.7578-1.17188C78.3203-1.17188 79.3945-2.24609 79.3945-3.90625L79.3945-7.71484C90.625-8.64258 98.3398-14.7949 98.3398-24.5117C98.3398-33.1543 92.9199-37.9395 81.9336-40.1367L79.3945-40.625L79.3945-52.4902C82.4219-51.9043 84.5215-50.1953 85.5957-47.5098C87.0117-45.0684 88.8184-43.8477 91.4551-43.8477C94.8242-43.8477 97.0215-45.8008 97.0215-48.7305C97.0215-49.6094 96.8262-50.5371 96.582-51.3672C94.7754-57.2266 88.623-61.8652 79.3945-62.6953L79.3945-66.6504C79.3945-68.2617 78.3203-69.3848 76.7578-69.3848C75.2441-69.3848 74.1699-68.3105 74.1699-66.6504L74.1699-62.6953C63.4277-61.9141 55.8105-55.6641 55.8105-46.3867C55.8105-37.8418 61.377-33.0078 71.875-30.7129L74.1699-30.2246L74.1699-17.8223C70.2637-18.3594 67.9688-20.3125 67.0898-22.998C65.8691-25.4395 64.0625-26.8555 61.377-26.8555C57.7148-26.8555 55.6152-24.6582 55.6152-21.4844C55.6152-20.6543 55.7617-19.7266 56.1523-18.7988C58.0078-13.2812 64.0625-8.34961 74.1699-7.71484L74.1699-3.90625C74.1699-2.24609 75.2441-1.17188 76.7578-1.17188ZM74.1699-41.8945L73.7305-41.9922C69.873-43.0176 67.9688-44.7266 67.9688-47.3633C67.9688-50.0977 70.3613-52.1484 74.1699-52.6367ZM79.3945-29.0039L80.2246-28.8086C84.5215-27.7344 86.1816-26.1719 86.1816-23.3887C86.1816-20.3125 83.8379-18.3105 79.3945-17.8223Z"/>
  </g>
  <g id="Bold-L" transform="matrix(1 0 0 1 2264.37 1556)">
   <path d="M37.5 24.3652L113.721 24.3652C127.637 24.3652 135.156 16.8945 135.156 3.07617L135.156-73.3887C135.156-87.207 127.637-94.7266 113.721-94.7266L37.5-94.7266C23.6328-94.7266 16.0645-87.2559 16.0645-73.3887L16.0645 3.07617C16.0645 16.8945 23.6328 24.3652 37.5 24.3652ZM38.9648 9.91211C33.4473 9.91211 30.5176 7.17773 30.5176 1.41602L30.5176-71.7285C30.5176-77.5391 33.4473-80.2734 38.9648-80.2734L112.256-80.2734C117.725-80.2734 120.703-77.5391 120.703-71.7285L120.703 1.41602C120.703 7.17773 117.725 9.91211 112.256 9.91211ZM75.6348-0.634766C77.1484-0.634766 78.3203-1.70898 78.3203-3.32031L78.3203-7.42188C89.0625-8.34961 96.6797-14.3555 96.6797-23.877C96.6797-32.373 91.2598-37.2559 80.3223-39.4043L78.3203-39.7949L78.3203-53.9551C82.0312-53.3203 84.6191-51.123 85.7422-47.8516C86.8652-45.6543 88.3789-44.4824 90.7227-44.4824C93.6035-44.4824 95.5078-46.2402 95.5078-48.8281C95.5078-49.6094 95.3125-50.3906 95.1172-51.1719C93.4082-57.3242 87.1582-62.0117 78.3203-62.8418L78.3203-66.9434C78.3203-68.5547 77.1484-69.6289 75.6348-69.6289C74.1211-69.6289 72.998-68.5547 72.998-66.9434L72.998-62.8418C62.7441-61.9629 55.3711-55.8594 55.3711-46.875C55.3711-38.623 60.8398-33.8379 71.2891-31.4941L72.998-31.1523L72.998-16.2109C68.3594-16.8457 65.5273-19.3359 64.5996-22.7051C63.623-24.9512 62.0605-26.1719 59.7168-26.1719C56.6895-26.1719 54.834-24.2676 54.834-21.5332C54.834-20.752 54.9805-19.9707 55.2734-19.1406C57.0312-12.9883 63.4277-8.1543 72.998-7.4707L72.998-3.32031C72.998-1.70898 74.1211-0.634766 75.6348-0.634766ZM72.998-41.1133L72.5586-41.2109C67.9199-42.4805 65.6738-44.4824 65.6738-47.6074C65.6738-50.8789 68.5547-53.418 72.998-54.0039ZM78.3203-29.8828L79.2969-29.6387C84.4238-28.3203 86.377-26.3184 86.377-22.998C86.377-19.3359 83.5449-16.7969 78.3203-16.2109Z"/>
  </g>
  <g id="Semibold-L" transform="matrix(1 0 0 1 1968.44 1556)">
   <path d="M36.6211 23.584L113.037 23.584C126.514 23.584 133.594 16.5039 133.594 3.17383L133.594-73.5352C133.594-86.8164 126.514-93.9453 113.037-93.9453L36.6211-93.9453C23.1934-93.9453 16.0645-86.8652 16.0645-73.5352L16.0645 3.17383C16.0645 16.5527 23.1934 23.584 36.6211 23.584ZM37.5977 11.2793C31.6406 11.2793 28.418 8.20312 28.418 1.95312L28.418-72.3145C28.418-78.5156 31.6406-81.5918 37.5977-81.5918L112.061-81.5918C117.969-81.5918 121.24-78.5156 121.24-72.3145L121.24 1.95312C121.24 8.20312 117.969 11.2793 112.061 11.2793ZM74.8535-0.244141C76.3672-0.244141 77.5391-1.36719 77.5391-2.92969L77.5391-7.22656C87.9883-8.10547 95.5566-14.0625 95.5566-23.4375C95.5566-31.8848 90.1367-36.7676 79.248-38.8672L77.5391-39.2578L77.5391-54.9316C81.7383-54.2969 84.7168-51.8066 85.8398-48.0957C86.7676-46.0449 88.0859-44.9219 90.2344-44.9219C92.7734-44.9219 94.4336-46.5332 94.4336-48.877C94.4336-49.6094 94.2871-50.3418 94.0918-51.0742C92.4316-57.4219 86.1328-62.1094 77.5391-62.9395L77.5391-67.1387C77.5391-68.7012 76.3672-69.8242 74.8535-69.8242C73.291-69.8242 72.2168-68.75 72.2168-67.1387L72.2168-62.9395C62.2559-62.0117 55.0781-56.0059 55.0781-47.2656C55.0781-39.209 60.498-34.4238 70.8984-32.0801L72.2168-31.7871L72.2168-15.1367C67.041-15.8203 63.8184-18.6035 62.8906-22.4609C62.0605-24.6094 60.6445-25.7324 58.5449-25.7324C55.9082-25.7324 54.248-24.0234 54.248-21.582C54.248-20.8496 54.3945-20.1172 54.6387-19.3848C56.3965-12.8418 62.9883-8.00781 72.2168-7.27539L72.2168-2.92969C72.2168-1.31836 73.3398-0.244141 74.8535-0.244141ZM72.2168-40.5762L71.7773-40.6738C66.5527-42.1387 64.1113-44.3359 64.1113-47.8027C64.1113-51.4648 67.2852-54.3457 72.2168-54.9805ZM77.5391-30.4688L78.6621-30.1758C84.375-28.7109 86.5234-26.4648 86.5234-22.7539C86.5234-18.7012 83.3496-15.7227 77.5391-15.1367Z"/>
  </g>
  <g id="Medium-L" transform="matrix(1 0 0 1 1672.31 1556)">
   <path d="M35.9375 22.998L112.5 22.998C125.635 22.998 132.422 16.2109 132.422 3.27148L132.422-73.6328C132.422-86.5234 125.635-93.3105 112.5-93.3105L35.9375-93.3105C22.9004-93.3105 16.0645-86.5723 16.0645-73.6328L16.0645 3.27148C16.0645 16.2598 22.9004 22.998 35.9375 22.998ZM36.5723 12.2559C30.2246 12.2559 26.8066 8.98438 26.8066 2.39258L26.8066-72.7051C26.8066-79.2969 30.2246-82.6172 36.5723-82.6172L111.865-82.6172C118.115-82.6172 121.68-79.2969 121.68-72.7051L121.68 2.39258C121.68 8.98438 118.115 12.2559 111.865 12.2559ZM74.2676 0C75.7812 0 76.9531-1.07422 76.9531-2.63672L76.9531-7.08008C87.1582-7.95898 94.6777-13.8184 94.6777-23.0957C94.6777-31.4941 89.2578-36.4258 78.418-38.5254L76.9531-38.8184L76.9531-55.7129C81.4941-55.0293 84.7656-52.3438 85.8887-48.2422C86.6699-46.3867 87.8418-45.2637 89.8438-45.2637C92.1387-45.2637 93.6523-46.7773 93.6523-48.9258C93.6523-49.6094 93.5059-50.293 93.3594-50.9766C91.6992-57.4707 85.3516-62.1582 76.9531-62.9883L76.9531-67.2852C76.9531-68.8477 75.7812-69.9219 74.2676-69.9219C72.7051-69.9219 71.6309-68.8965 71.6309-67.2852L71.6309-62.9883C61.8652-62.0605 54.834-56.1035 54.834-47.5098C54.834-39.5996 60.2051-34.8633 70.6055-32.4707L71.6309-32.2266L71.6309-14.3066C66.0156-15.0391 62.5488-18.0664 61.5723-22.3145C60.8887-24.3164 59.5703-25.3906 57.666-25.3906C55.3711-25.3906 53.8574-23.8281 53.8574-21.582C53.8574-20.8984 54.0039-20.2637 54.1992-19.5312C55.9082-12.6953 62.6465-7.91016 71.6309-7.12891L71.6309-2.63672C71.6309-1.02539 72.7539 0 74.2676 0ZM71.6309-40.1367L71.1914-40.2832C65.5762-41.8457 62.8906-44.1895 62.8906-47.9492C62.8906-51.9043 66.3574-54.9805 71.6309-55.7617ZM76.9531-30.9082L78.1738-30.6152C84.2773-29.0039 86.6211-26.5625 86.6211-22.5586C86.6211-18.1641 83.252-14.9414 76.9531-14.3066Z"/>
  </g>
  <g id="Regular-L" transform="matrix(1 0 0 1 1376.38 1556)">
   <path d="M35.0586 22.2168L111.816 22.2168C124.463 22.2168 130.859 15.8691 130.859 3.41797L130.859-73.7305C130.859-86.1816 124.463-92.5293 111.816-92.5293L35.0586-92.5293C22.4609-92.5293 16.0645-86.2305 16.0645-73.7305L16.0645 3.41797C16.0645 15.918 22.4609 22.2168 35.0586 22.2168ZM35.2539 13.5742C28.418 13.5742 24.707 9.96094 24.707 2.97852L24.707-73.291C24.707-80.2734 28.418-83.8867 35.2539-83.8867L111.67-83.8867C118.359-83.8867 122.217-80.2734 122.217-73.291L122.217 2.97852C122.217 9.96094 118.359 13.5742 111.67 13.5742ZM73.4863 0.390625C75 0.390625 76.1719-0.683594 76.1719-2.29492L76.1719-6.88477C86.084-7.76367 93.5547-13.5254 93.5547-22.7051C93.5547-30.957 88.1348-35.9375 77.3438-38.0371L76.1719-38.2324L76.1719-56.6895C81.25-55.957 84.8145-52.9785 85.9863-48.4863C86.5234-46.7773 87.5488-45.7031 89.3555-45.7031C91.2598-45.7031 92.627-47.0703 92.627-48.9746C92.627-49.6094 92.4805-50.1953 92.334-50.8301C90.7715-57.5195 84.3262-62.2559 76.1719-63.0859L76.1719-67.4316C76.1719-69.043 75-70.1172 73.4863-70.1172C71.9238-70.1172 70.8496-69.043 70.8496-67.4316L70.8496-63.0859C61.4258-62.1094 54.541-56.2012 54.541-47.8516C54.541-40.1367 59.8633-35.4492 70.2637-33.0078L70.8496-32.8613L70.8496-13.2324C64.6973-13.9648 60.8398-17.3828 59.9121-22.1191C59.3262-23.9746 58.2031-24.9512 56.4941-24.9512C54.6387-24.9512 53.3203-23.584 53.3203-21.6309C53.3203-20.9961 53.418-20.4102 53.5645-19.7754C55.2734-12.5 62.207-7.76367 70.8496-6.98242L70.8496-2.29492C70.8496-0.683594 71.9727 0.390625 73.4863 0.390625ZM70.8496-39.5996L70.4102-39.7461C64.209-41.4551 61.3281-44.043 61.3281-48.1445C61.3281-52.4414 65.0879-55.8594 70.8496-56.6895ZM76.1719-31.4941L77.5391-31.1523C84.2285-29.3945 86.7676-26.709 86.7676-22.3633C86.7676-17.4805 83.0566-13.8672 76.1719-13.2324Z"/>
  </g>
  <g id="Light-L" transform="matrix(1 0 0 1 1080.5 1556)">
   <path d="M34.0332 21.4355L111.23 21.4355C123.096 21.4355 129.199 15.2344 129.199 3.56445L129.199-73.8281C129.199-85.5469 123.096-91.6992 111.23-91.6992L34.0332-91.6992C22.168-91.6992 16.0645-85.6445 16.0645-73.8281L16.0645 3.56445C16.0645 15.3809 22.168 21.4355 34.0332 21.4355ZM34.1797 14.7949C26.709 14.7949 22.7051 10.8398 22.7051 3.22266L22.7051-73.4863C22.7051-81.1523 26.709-85.0586 34.1797-85.0586L111.035-85.0586C118.359-85.0586 122.559-81.1523 122.559-73.4863L122.559 3.22266C122.559 10.8398 118.359 14.7949 111.035 14.7949ZM72.6562-0.0976562C73.9258-0.0976562 74.9512-0.976562 74.9512-2.29492L74.9512-7.17773C85.0586-7.95898 92.334-13.8184 92.334-22.5098C92.334-30.4199 87.1094-35.1562 76.4648-37.3535L74.9512-37.6953L74.9512-57.3242C80.7617-56.6895 84.9609-53.3203 85.9863-48.4863C86.377-47.0215 87.207-46.1426 88.7207-46.1426C90.2344-46.1426 91.3086-47.2168 91.3086-48.8281C91.3086-49.4141 91.2109-49.9512 91.1133-50.4883C89.6484-57.0801 83.2031-61.8652 74.9512-62.5488L74.9512-66.9434C74.9512-68.2617 73.9258-69.1895 72.6562-69.1895C71.3379-69.1895 70.4102-68.3105 70.4102-66.9434L70.4102-62.5488C61.1816-61.7188 54.1992-55.9082 54.1992-47.8516C54.1992-40.5273 59.375-35.9375 69.6289-33.4961L70.4102-33.3496L70.4102-12.3535C63.6719-13.0371 59.082-16.8457 58.252-22.2168C57.8613-23.7793 56.9824-24.6094 55.5176-24.6094C54.0039-24.6094 52.9297-23.5352 52.9297-21.875C52.9297-21.3379 53.0762-20.752 53.1738-20.2148C54.7363-12.8906 61.5723-7.95898 70.4102-7.27539L70.4102-2.29492C70.4102-0.927734 71.3867-0.0976562 72.6562-0.0976562ZM70.4102-38.8184L70.0195-38.916C63.0859-40.7227 59.668-43.457 59.668-48.0469C59.668-52.9297 64.1602-56.6406 70.4102-57.3242ZM74.9512-32.2266L76.3184-31.8848C83.7891-30.0293 86.8652-27.1484 86.8652-22.3145C86.8652-16.9434 82.373-12.8906 74.9512-12.3535Z"/>
  </g>
  <g id="Thin-L" transform="matrix(1 0 0 1 784.889 1556)">
   <path d="M32.666 20.3613L110.352 20.3613C121.24 20.3613 127.002 14.4531 127.002 3.75977L127.002-73.9746C127.002-84.7168 121.24-90.5762 110.352-90.5762L32.666-90.5762C21.7773-90.5762 16.0645-84.8633 16.0645-73.9746L16.0645 3.75977C16.0645 14.6484 21.7773 20.3613 32.666 20.3613ZM32.8125 16.4062C24.4141 16.4062 19.9707 12.0117 19.9707 3.56445L19.9707-73.7793C19.9707-82.2754 24.4141-86.6699 32.8125-86.6699L110.205-86.6699C118.359-86.6699 123.047-82.2754 123.047-73.7793L123.047 3.56445C123.047 12.0117 118.359 16.4062 110.205 16.4062ZM71.5332-0.683594C72.5098-0.683594 73.291-1.36719 73.291-2.34375L73.291-7.56836C83.6914-8.20312 90.6738-14.2578 90.6738-22.3145C90.6738-29.6875 85.7422-34.082 75.3418-36.4746L73.291-36.9141L73.291-58.2031C80.127-57.666 85.1074-53.8086 85.9863-48.5352C86.1816-47.3145 86.7188-46.6797 87.793-46.6797C88.916-46.6797 89.6484-47.4121 89.6484-48.584C89.6484-49.1211 89.5508-49.6094 89.4531-50.0977C88.1348-56.4453 81.6895-61.3281 73.291-61.8164L73.291-66.2598C73.291-67.2363 72.5098-67.9199 71.5332-67.9199C70.5078-67.9199 69.873-67.2852 69.873-66.2598L69.873-61.8164C60.8887-61.2305 53.7598-55.4688 53.7598-47.8027C53.7598-41.0156 58.6914-36.5723 68.7988-34.1797L69.873-33.9844L69.873-11.2305C62.3047-11.8164 56.7383-16.1621 56.0547-22.3633C55.9082-23.5352 55.3711-24.2188 54.248-24.2188C53.2227-24.2188 52.4902-23.4863 52.4902-22.2168C52.4902-21.7285 52.5879-21.2402 52.6367-20.752C54.0527-13.4277 60.6934-8.20312 69.873-7.66602L69.873-2.34375C69.873-1.31836 70.5566-0.683594 71.5332-0.683594ZM69.873-37.7441L69.5312-37.793C61.5723-39.6973 57.4219-42.627 57.4219-47.8516C57.4219-53.5156 62.8906-57.666 69.873-58.2031ZM73.291-33.1543L74.6582-32.8613C83.2031-30.8594 87.0605-27.7344 87.0605-22.2656C87.0605-16.1621 81.543-11.6211 73.291-11.2305Z"/>
  </g>
  <g id="Ultralight-L" transform="matrix(1 0 0 1 488.739 1556)">
   <path d="M31.9824 19.7754L109.961 19.7754C120.312 19.7754 125.879 14.0625 125.879 3.85742L125.879-74.0723C125.879-84.2773 120.312-89.9902 109.961-89.9902L31.9824-89.9902C21.582-89.9902 16.0645-84.4727 16.0645-74.0723L16.0645 3.85742C16.0645 14.2578 21.582 19.7754 31.9824 19.7754ZM32.1289 17.2363C23.1934 17.2363 18.6035 12.6465 18.6035 3.75977L18.6035-73.9258C18.6035-82.8125 23.1934-87.4512 32.1289-87.4512L109.766-87.4512C118.359-87.4512 123.291-82.8125 123.291-73.9258L123.291 3.75977C123.291 12.6465 118.359 17.2363 109.766 17.2363ZM70.9961-1.02539C71.7773-1.02539 72.4609-1.61133 72.4609-2.39258L72.4609-7.76367C82.959-8.30078 89.8438-14.4531 89.8438-22.168C89.8438-29.2969 85.0586-33.5449 74.7559-36.0352L72.4609-36.5234L72.4609-58.6426C79.7852-58.2031 85.2051-54.0527 85.9863-48.5352C86.084-47.5098 86.4746-46.9727 87.3535-46.9727C88.1836-46.9727 88.7695-47.5586 88.7695-48.4863C88.7695-48.9258 88.6719-49.4141 88.623-49.9023C87.3535-56.1035 80.9082-61.0352 72.4609-61.4746L72.4609-65.918C72.4609-66.6992 71.7773-67.2852 70.9961-67.2852C70.0684-67.2852 69.5801-66.7969 69.5801-65.918L69.5801-61.4746C60.7422-60.9375 53.5156-55.2734 53.5156-47.8027C53.5156-41.2598 58.3984-36.8652 68.4082-34.5703L69.5801-34.2773L69.5801-10.5957C61.5723-11.1328 55.5664-15.7715 54.9316-22.4609C54.9316-23.3887 54.541-23.9746 53.5645-23.9746C52.7832-23.9746 52.2461-23.4375 52.2461-22.4121C52.2461-21.9238 52.2949-21.4844 52.3926-20.9961C53.7109-13.6719 60.2539-8.30078 69.5801-7.86133L69.5801-2.39258C69.5801-1.51367 70.166-1.02539 70.9961-1.02539ZM69.5801-37.1582L69.2871-37.2559C60.8398-39.209 56.2988-42.2363 56.2988-47.7539C56.2988-53.8574 62.2559-58.2031 69.5801-58.6426ZM72.4609-33.6426L73.8281-33.3496C82.9102-31.2988 87.1094-28.0273 87.1094-22.2168C87.1094-15.7715 81.1035-10.9863 72.4609-10.5957Z"/>
  </g>
  <g id="Black-M" transform="matrix(1 0 0 1 2872.19 1126)">
   <path d="M31.9824 13.5742L90.4297 13.5742C102.686 13.5742 109.961 6.29883 109.961-5.95703L109.961-64.4043C109.961-76.6602 102.686-83.9355 90.4297-83.9355L31.9824-83.9355C19.7266-83.9355 12.4512-76.6602 12.4512-64.4043L12.4512-5.95703C12.4512 6.29883 19.7266 13.5742 31.9824 13.5742ZM34.9121-4.73633C32.0801-4.73633 30.7617-5.81055 30.7617-8.88672L30.7617-61.4746C30.7617-64.5508 32.0801-65.6738 34.9121-65.6738L87.5-65.6738C90.332-65.6738 91.6504-64.5508 91.6504-61.4746L91.6504-8.88672C91.6504-5.81055 90.332-4.73633 87.5-4.73633ZM61.2305-10.1074C62.2559-10.1074 62.9883-10.8398 62.9883-12.0117L62.9883-14.5996C72.6562-15.2832 78.7109-20.4102 78.7109-28.0273C78.7109-34.7656 74.6094-38.2324 66.0645-40.0391L62.9883-40.6738L62.9883-46.1914C64.4043-45.8496 65.3809-45.166 66.1133-44.1406C67.6758-41.8945 69.4336-40.8691 71.875-40.8691C75.293-40.8691 77.3926-42.7246 77.3926-45.459C77.3926-46.2891 77.1973-47.168 76.9531-47.9004C75.4883-51.8066 70.8984-55.4199 62.9883-55.957L62.9883-58.7891C62.9883-59.9609 62.2559-60.6934 61.2305-60.6934C60.1562-60.6934 59.4238-59.9609 59.4238-58.7891L59.4238-55.957C50.3418-55.5664 43.8965-50.5371 43.8965-42.8711C43.8965-35.9375 48.3398-32.2266 56.4453-30.5176L59.4238-29.8828L59.4238-24.2676C57.5195-24.5117 56.4453-25.293 55.8105-26.3672C54.541-28.5156 52.8809-29.834 50.2441-29.834C46.4355-29.834 44.4336-27.6855 44.4336-24.6094C44.4336-23.877 44.5801-22.998 45.0195-22.0215C46.4355-18.8965 50.4883-14.8926 59.4238-14.5508L59.4238-12.0117C59.4238-10.8398 60.1562-10.1074 61.2305-10.1074ZM59.4238-41.4551L59.1309-41.5527C57.2266-41.8945 56.2012-42.6758 56.2012-43.9941C56.2012-45.4102 57.4707-46.3379 59.4238-46.3867ZM62.9883-29.1504L63.2812-29.1016C65.4785-28.7109 66.5039-28.0762 66.5039-26.709C66.5039-25.2441 65.1367-24.5117 62.9883-24.2676Z"/>
  </g>
  <g id="Heavy-M" transform="matrix(1 0 0 1 2576.39 1126)">
   <path d="M31.0059 12.6465L89.6484 12.6465C101.416 12.6465 108.154 5.9082 108.154-5.81055L108.154-64.5508C108.154-76.2695 101.416-83.0566 89.6484-83.0566L31.0059-83.0566C19.2383-83.0566 12.4512-76.3184 12.4512-64.5508L12.4512-5.81055C12.4512 5.9082 19.2383 12.6465 31.0059 12.6465ZM33.252-3.17383C29.9316-3.17383 28.2715-4.63867 28.2715-8.1543L28.2715-62.207C28.2715-65.7715 29.9316-67.2363 33.252-67.2363L87.3535-67.2363C90.6738-67.2363 92.334-65.7715 92.334-62.207L92.334-8.1543C92.334-4.63867 90.6738-3.17383 87.3535-3.17383ZM60.3027-9.47266C61.4258-9.47266 62.207-10.2539 62.207-11.4746L62.207-14.2578C71.3867-14.9414 77.3926-19.9219 77.3926-27.4414C77.3926-34.1797 73.2422-37.7441 64.6973-39.502L62.207-40.0391L62.207-47.4121C64.1113-47.0703 65.4297-45.9961 66.2109-44.4824C67.5781-42.3828 69.1406-41.4062 71.3867-41.4062C74.3652-41.4062 76.2207-43.0664 76.2207-45.6055C76.2207-46.3379 76.0742-47.1191 75.8301-47.8027C74.4141-52.0508 69.7266-55.6641 62.207-56.25L62.207-59.1797C62.207-60.4004 61.4258-61.1816 60.3027-61.1816C59.1797-61.1816 58.3984-60.4004 58.3984-59.1797L58.3984-56.25C49.707-55.7129 43.5547-50.8301 43.5547-43.4082C43.5547-36.6211 47.9492-32.9102 56.0547-31.1523L58.3984-30.6641L58.3984-22.9492C55.957-23.291 54.4922-24.4629 53.8086-26.0742C52.7344-28.0762 51.2207-29.248 48.8281-29.248C45.5566-29.248 43.75-27.3438 43.75-24.6094C43.75-23.877 43.8477-23.0957 44.2383-22.2656C45.6543-18.5547 50.0488-14.6484 58.3984-14.209L58.3984-11.4746C58.3984-10.2539 59.2285-9.47266 60.3027-9.47266ZM58.3984-40.918L58.1055-40.9668C55.6152-41.5527 54.3457-42.627 54.3457-44.3359C54.3457-46.0938 55.957-47.3633 58.3984-47.5586ZM62.207-29.834L62.6953-29.6875C65.4785-29.1016 66.6504-28.1738 66.6504-26.3672C66.6504-24.4141 65.0391-23.291 62.207-22.9492Z"/>
  </g>
  <g id="Bold-M" transform="matrix(1 0 0 1 2280.68 1126)">
   <path d="M29.8828 11.6699L88.7207 11.6699C99.9512 11.6699 106.152 5.46875 106.152-5.66406L106.152-64.6973C106.152-75.8789 99.9512-82.0312 88.7207-82.0312L29.8828-82.0312C18.6523-82.0312 12.4512-75.8789 12.4512-64.6973L12.4512-5.66406C12.4512 5.51758 18.6523 11.6699 29.8828 11.6699ZM31.3965-1.41602C27.5391-1.41602 25.5371-3.27148 25.5371-7.32422L25.5371-63.0371C25.5371-67.1387 27.5391-68.9453 31.3965-68.9453L87.207-68.9453C91.0156-68.9453 93.0664-67.1387 93.0664-63.0371L93.0664-7.32422C93.0664-3.27148 91.0156-1.41602 87.207-1.41602ZM59.3262-8.74023C60.498-8.74023 61.377-9.57031 61.377-10.8398L61.377-13.8672C69.9707-14.5508 75.9277-19.3359 75.9277-26.8066C75.9277-33.4961 71.7285-37.207 63.2324-38.916L61.377-39.3066L61.377-48.8281C63.8184-48.3887 65.5273-46.9727 66.3574-44.8242C67.4316-42.9688 68.75-41.9922 70.752-41.9922C73.291-41.9922 74.9512-43.5059 74.9512-45.7031C74.9512-46.3867 74.8047-47.0703 74.6094-47.7051C73.2422-52.2949 68.457-55.9082 61.377-56.543L61.377-59.6191C61.377-60.8887 60.498-61.7676 59.3262-61.7676C58.1055-61.7676 57.2754-60.8887 57.2754-59.6191L57.2754-56.543C49.0234-55.9082 43.1641-51.123 43.1641-43.9453C43.1641-37.4023 47.5098-33.6426 55.6152-31.8848L57.2754-31.4941L57.2754-21.4844C54.1504-21.9238 52.2949-23.4863 51.6113-25.6836C50.6836-27.5879 49.3164-28.6133 47.2656-28.6133C44.5801-28.6133 42.9688-26.9531 42.9688-24.5605C42.9688-23.9258 43.0664-23.2422 43.3594-22.5098C44.7754-18.1641 49.5605-14.3555 57.2754-13.8672L57.2754-10.8398C57.2754-9.57031 58.1543-8.74023 59.3262-8.74023ZM57.2754-40.2832L56.9336-40.3809C53.8086-41.2109 52.3438-42.5293 52.3438-44.6777C52.3438-46.875 54.248-48.5352 57.2754-48.9258ZM61.377-30.5664L62.0605-30.3711C65.4785-29.541 66.8457-28.2227 66.8457-25.9766C66.8457-23.5352 64.9414-21.875 61.377-21.4844Z"/>
  </g>
  <g id="Semibold-M" transform="matrix(1 0 0 1 1984.65 1126)">
   <path d="M29.1016 10.9863L88.0859 10.9863C98.9746 10.9863 104.785 5.17578 104.785-5.56641L104.785-64.8438C104.785-75.5859 98.9746-81.3477 88.0859-81.3477L29.1016-81.3477C18.2617-81.3477 12.4512-75.5859 12.4512-64.8438L12.4512-5.56641C12.4512 5.22461 18.2617 10.9863 29.1016 10.9863ZM30.127-0.195312C25.8789-0.195312 23.6328-2.34375 23.6328-6.78711L23.6328-63.623C23.6328-68.0664 25.8789-70.166 30.127-70.166L87.1094-70.166C91.2598-70.166 93.6035-68.0664 93.6035-63.623L93.6035-6.78711C93.6035-2.34375 91.2598-0.195312 87.1094-0.195312ZM58.6426-8.25195C59.8633-8.25195 60.791-9.13086 60.791-10.4004L60.791-13.5742C68.9941-14.3066 74.9512-18.9453 74.9512-26.3672C74.9512-33.0566 70.7031-36.8652 62.207-38.4766L60.791-38.7695L60.791-49.8047C63.623-49.2676 65.5762-47.6562 66.4551-45.0684C67.334-43.3594 68.5059-42.3828 70.3613-42.3828C72.5586-42.3828 74.0234-43.7988 74.0234-45.8008C74.0234-46.4355 73.9258-47.0215 73.7305-47.6074C72.4121-52.4902 67.5293-56.1035 60.791-56.7383L60.791-59.9609C60.791-61.2305 59.8633-62.1094 58.6426-62.1094C57.373-62.1094 56.4941-61.2793 56.4941-59.9609L56.4941-56.7383C48.5352-56.0547 42.9199-51.3184 42.9199-44.3359C42.9199-37.9395 47.168-34.1797 55.3223-32.373L56.4941-32.0801L56.4941-20.459C52.8809-20.9473 50.7812-22.8516 50.0488-25.4395C49.2676-27.2461 48.0469-28.1738 46.2402-28.1738C43.8965-28.1738 42.4316-26.709 42.4316-24.5605C42.4316-23.9746 42.5781-23.3887 42.7734-22.7051C44.1895-17.8711 49.2188-14.1602 56.4941-13.623L56.4941-10.4004C56.4941-9.08203 57.373-8.25195 58.6426-8.25195ZM56.4941-39.8438L56.1523-39.9414C52.5879-40.9668 50.9277-42.4805 50.9277-44.9219C50.9277-47.4121 53.0273-49.3652 56.4941-49.8535ZM60.791-31.0547L61.5723-30.8594C65.5273-29.834 66.9434-28.2715 66.9434-25.7324C66.9434-22.9004 64.8438-20.8984 60.791-20.459Z"/>
  </g>
  <g id="Medium-M" transform="matrix(1 0 0 1 1688.47 1126)">
   <path d="M28.5156 10.4492L87.6465 10.4492C98.2422 10.4492 103.711 4.98047 103.711-5.46875L103.711-64.8926C103.711-75.3418 98.2422-80.8105 87.6465-80.8105L28.5156-80.8105C17.9688-80.8105 12.4512-75.3906 12.4512-64.8926L12.4512-5.46875C12.4512 4.98047 17.9688 10.4492 28.5156 10.4492ZM29.1504 0.732422C24.6582 0.732422 22.168-1.61133 22.168-6.34766L22.168-64.0137C22.168-68.75 24.6582-71.0938 29.1504-71.0938L87.0117-71.0938C91.4551-71.0938 93.9941-68.75 93.9941-64.0137L93.9941-6.34766C93.9941-1.61133 91.4551 0.732422 87.0117 0.732422ZM58.1055-7.86133C59.375-7.86133 60.3516-8.74023 60.3516-10.1074L60.3516-13.3789C68.2617-14.1113 74.2188-18.6035 74.2188-26.0254C74.2188-32.666 69.9219-36.5723 61.4258-38.1836L60.3516-38.3789L60.3516-50.5371C63.4277-50 65.625-48.1445 66.5527-45.2637C67.2363-43.6523 68.3105-42.7246 70.0684-42.7246C72.0215-42.7246 73.3887-43.9941 73.3887-45.8984C73.3887-46.4844 73.2422-47.0215 73.0957-47.5586C71.7773-52.6367 66.8945-56.25 60.3516-56.9336L60.3516-60.2051C60.3516-61.5234 59.375-62.4023 58.1055-62.4023C56.8359-62.4023 55.9082-61.5234 55.9082-60.2051L55.9082-56.9336C48.1934-56.1523 42.7246-51.4648 42.7246-44.6289C42.7246-38.3301 46.9727-34.5703 55.0781-32.7148L55.9082-32.5195L55.9082-19.6777C51.9531-20.2637 49.6582-22.3633 48.877-25.2441C48.1934-26.9531 47.0703-27.8809 45.4102-27.8809C43.3594-27.8809 42.041-26.5137 42.041-24.5605C42.041-23.9746 42.1387-23.4375 42.334-22.8516C43.75-17.6758 48.9258-14.0137 55.9082-13.4277L55.9082-10.1074C55.9082-8.74023 56.8359-7.86133 58.1055-7.86133ZM55.9082-39.502L55.5664-39.5996C51.6602-40.7715 49.8535-42.4805 49.8535-45.0684C49.8535-47.8027 52.1484-50 55.9082-50.5859ZM60.3516-31.4453L61.2305-31.2012C65.5273-30.0781 67.041-28.3203 67.041-25.5371C67.041-22.4121 64.7949-20.166 60.3516-19.6777Z"/>
  </g>
  <g id="Regular-M" transform="matrix(1 0 0 1 1392.45 1126)">
   <path d="M27.7832 9.76562L87.0117 9.76562C97.2656 9.76562 102.344 4.6875 102.344-5.37109L102.344-64.9902C102.344-75.0488 97.2656-80.127 87.0117-80.127L27.7832-80.127C17.5781-80.127 12.4512-75.0977 12.4512-64.9902L12.4512-5.37109C12.4512 4.73633 17.5781 9.76562 27.7832 9.76562ZM27.8809 1.9043C22.998 1.9043 20.3125-0.683594 20.3125-5.76172L20.3125-64.5996C20.3125-69.6777 22.998-72.2656 27.8809-72.2656L86.9141-72.2656C91.748-72.2656 94.4824-69.6777 94.4824-64.5996L94.4824-5.76172C94.4824-0.683594 91.748 1.9043 86.9141 1.9043ZM57.4219-7.37305C58.7402-7.37305 59.7656-8.30078 59.7656-9.66797L59.7656-13.0859C67.334-13.8184 73.1934-18.2129 73.1934-25.5859C73.1934-32.2266 68.8965-36.2305 60.4004-37.7441L59.7656-37.8906L59.7656-51.5137C63.2324-50.8789 65.6738-48.7793 66.6504-45.5078C67.1387-44.043 68.0664-43.1152 69.6289-43.1152C71.2891-43.1152 72.5098-44.2871 72.5098-45.9961C72.5098-46.4844 72.3633-46.9727 72.2656-47.5098C70.9961-52.7832 66.0156-56.3965 59.7656-57.1289L59.7656-60.498C59.7656-61.8652 58.7402-62.793 57.4219-62.793C56.1035-62.793 55.127-61.8652 55.127-60.498L55.127-57.1289C47.7051-56.2988 42.4805-51.6602 42.4805-45.0195C42.4805-38.8184 46.6309-35.1074 54.7852-33.2031L55.127-33.1055L55.127-18.6523C50.7324-19.2871 48.1445-21.7285 47.3633-25C46.8262-26.6602 45.8008-27.4414 44.3359-27.4414C42.6758-27.4414 41.5039-26.2695 41.5039-24.5605C41.5039-24.0234 41.6016-23.5352 41.748-23.0469C43.1152-17.4316 48.584-13.8184 55.127-13.1836L55.127-9.66797C55.127-8.30078 56.1035-7.37305 57.4219-7.37305ZM55.127-39.1113L54.7852-39.209C50.3906-40.4785 48.4863-42.4316 48.4863-45.3125C48.4863-48.291 50.9766-50.7812 55.127-51.5137ZM59.7656-31.9336L60.791-31.6895C65.5273-30.3711 67.1875-28.3691 67.1875-25.2441C67.1875-21.8262 64.7461-19.2383 59.7656-18.6523Z"/>
  </g>
  <g id="Light-M" transform="matrix(1 0 0 1 1096.47 1126)">
   <path d="M26.8555 9.0332L86.4746 9.0332C95.9961 9.0332 100.879 4.15039 100.879-5.22461L100.879-65.0879C100.879-74.5117 95.9961-79.3945 86.4746-79.3945L26.8555-79.3945C17.334-79.3945 12.4512-74.5605 12.4512-65.0879L12.4512-5.22461C12.4512 4.19922 17.334 9.0332 26.8555 9.0332ZM26.9531 2.97852C21.4844 2.97852 18.5059 0.0976562 18.5059-5.56641L18.5059-64.7949C18.5059-70.4102 21.4844-73.3398 26.9531-73.3398L86.3281-73.3398C91.748-73.3398 94.8242-70.4102 94.8242-64.7949L94.8242-5.56641C94.8242 0.0976562 91.748 2.97852 86.3281 2.97852ZM56.6895-7.76367C57.7637-7.76367 58.6426-8.54492 58.6426-9.7168L58.6426-13.3789C66.3574-14.0137 72.0703-18.5059 72.0703-25.4395C72.0703-31.7383 67.9688-35.5469 59.6191-37.1582L58.6426-37.4023L58.6426-52.0996C62.793-51.5625 65.7715-49.1211 66.6016-45.5078C66.9922-44.2383 67.7246-43.5059 69.043-43.5059C70.4102-43.5059 71.3379-44.4336 71.3379-45.8496C71.3379-46.2891 71.2402-46.7285 71.1426-47.2168C69.9707-52.3438 64.9902-56.0547 58.6426-56.6406L58.6426-60.0098C58.6426-61.1816 57.7637-61.9629 56.6895-61.9629C55.5176-61.9629 54.7363-61.1816 54.7363-60.0098L54.7363-56.6406C47.5098-55.957 42.1387-51.3672 42.1387-45.0195C42.1387-39.1602 46.1914-35.5469 54.248-33.6914L54.7363-33.5449L54.7363-17.8711C49.8047-18.457 46.582-21.2402 45.8496-25.0977C45.5078-26.4648 44.6777-27.1484 43.457-27.1484C42.1387-27.1484 41.1621-26.1719 41.1621-24.7559C41.1621-24.3164 41.2598-23.877 41.3574-23.3887C42.6758-17.7734 47.998-14.0137 54.7363-13.4277L54.7363-9.7168C54.7363-8.54492 55.5664-7.76367 56.6895-7.76367ZM54.7363-38.3789L54.4434-38.4766C49.4141-39.8438 46.9727-41.8945 46.9727-45.2148C46.9727-48.7305 50.1465-51.4648 54.7363-52.0996ZM58.6426-32.5684L59.668-32.3242C65.1367-30.9082 67.2852-28.7598 67.2852-25.2441C67.2852-21.2891 64.1602-18.3594 58.6426-17.8711Z"/>
  </g>
  <g id="Thin-M" transform="matrix(1 0 0 1 800.758 1126)">
   <path d="M25.6348 8.05664L85.7422 8.05664C94.3848 8.05664 98.877 3.4668 98.877-5.0293L98.877-65.2344C98.877-73.7305 94.3848-78.3691 85.7422-78.3691L25.6348-78.3691C16.9922-78.3691 12.4512-73.877 12.4512-65.2344L12.4512-5.0293C12.4512 3.56445 16.9922 8.05664 25.6348 8.05664ZM25.7324 4.44336C19.3848 4.44336 16.0645 1.12305 16.0645-5.22461L16.0645-65.0391C16.0645-71.4355 19.3848-74.7559 25.7324-74.7559L85.5957-74.7559C91.748-74.7559 95.2637-71.4355 95.2637-65.0391L95.2637-5.22461C95.2637 1.12305 91.748 4.44336 85.5957 4.44336ZM55.6641-8.34961C56.4941-8.34961 57.1289-8.93555 57.1289-9.76562L57.1289-13.7207C65.1367-14.209 70.6055-18.8965 70.6055-25.2441C70.6055-31.1035 66.748-34.5703 58.5938-36.377L57.1289-36.7188L57.1289-52.832C62.207-52.4414 65.918-49.5117 66.6016-45.5566C66.7969-44.5312 67.2852-43.9941 68.2129-43.9941C69.1895-43.9941 69.8242-44.6289 69.8242-45.6543C69.8242-46.0449 69.7266-46.4355 69.6777-46.8262C68.6035-51.8066 63.623-55.5664 57.1289-56.0059L57.1289-59.4238C57.1289-60.2539 56.4941-60.8398 55.6641-60.8398C54.7852-60.8398 54.248-60.3027 54.248-59.4238L54.248-56.0059C47.2168-55.4688 41.748-51.0254 41.748-44.9707C41.748-39.5996 45.6055-36.1328 53.4668-34.2773L54.248-34.1309L54.248-16.8457C48.5352-17.334 44.4824-20.6055 43.8965-25.2441C43.75-26.2207 43.2129-26.7578 42.2852-26.7578C41.4062-26.7578 40.7715-26.123 40.7715-25.0977C40.7715-24.6582 40.8203-24.2676 40.918-23.877C42.041-18.2129 47.2168-14.209 54.248-13.7695L54.248-9.76562C54.248-8.88672 54.834-8.34961 55.6641-8.34961ZM54.248-37.4023L53.9551-37.4512C48.0469-38.916 44.9707-41.1621 44.9707-45.0684C44.9707-49.2676 49.0234-52.3926 54.248-52.832ZM57.1289-33.4473L58.2031-33.1543C64.5996-31.6895 67.4316-29.2969 67.4316-25.1953C67.4316-20.6055 63.3789-17.2363 57.1289-16.8457Z"/>
  </g>
  <g id="Ultralight-M" transform="matrix(1 0 0 1 504.535 1126)">
   <path d="M25 7.56836L85.3516 7.56836C93.5059 7.56836 97.9004 3.125 97.9004-4.98047L97.9004-65.2832C97.9004-73.3887 93.5059-77.832 85.3516-77.832L25-77.832C16.7969-77.832 12.4512-73.4863 12.4512-65.2832L12.4512-4.98047C12.4512 3.22266 16.7969 7.56836 25 7.56836ZM25.0977 5.17578C18.3594 5.17578 14.8438 1.66016 14.8438-5.07812L14.8438-65.1855C14.8438-71.9727 18.3594-75.4395 25.0977-75.4395L85.2051-75.4395C91.748-75.4395 95.5078-71.9727 95.5078-65.1855L95.5078-5.07812C95.5078 1.66016 91.748 5.17578 85.2051 5.17578ZM55.1758-8.59375C55.8105-8.59375 56.3965-9.08203 56.3965-9.76562L56.3965-13.916C64.502-14.3066 69.8242-19.0918 69.8242-25.1465C69.8242-30.7617 66.1133-34.082 58.1055-35.9863L56.3965-36.377L56.3965-53.2227C61.9141-52.8809 65.9668-49.7559 66.6016-45.5566C66.6992-44.6777 67.0898-44.2383 67.8223-44.2383C68.5547-44.2383 69.043-44.7266 69.043-45.5566C69.043-45.8984 68.9941-46.2891 68.8965-46.6309C67.9199-51.5137 62.9395-55.3223 56.3965-55.6641L56.3965-59.082C56.3965-59.7656 55.8105-60.2539 55.1758-60.2539C54.4434-60.2539 54.0039-59.8633 54.0039-59.082L54.0039-55.6641C47.0703-55.2246 41.5527-50.8301 41.5527-44.9707C41.5527-39.8438 45.3125-36.4258 53.125-34.6191L54.0039-34.4238L54.0039-16.3574C47.9004-16.748 43.4082-20.2637 42.9199-25.293C42.8711-26.0742 42.4805-26.5625 41.6992-26.5625C41.0156-26.5625 40.5273-26.0742 40.5273-25.2441C40.5273-24.8535 40.5762-24.5117 40.6738-24.1211C41.6992-18.457 46.8262-14.3066 54.0039-13.9648L54.0039-9.76562C54.0039-9.0332 54.4922-8.59375 55.1758-8.59375ZM54.0039-36.9141L53.7598-36.9629C47.3633-38.4766 43.9453-40.7715 43.9453-44.9707C43.9453-49.5605 48.4375-52.8809 54.0039-53.2227ZM56.3965-33.8867L57.4219-33.5938C64.3555-32.0312 67.4805-29.541 67.4805-25.1465C67.4805-20.2637 62.9395-16.6504 56.3965-16.3574Z"/>
  </g>
  <g id="Black-S" transform="matrix(1 0 0 1 2885.5 696)">
   <path d="M25 2.92969L70.8008 2.92969C80.3711 2.92969 86.0352-2.73438 86.0352-12.3047L86.0352-58.1055C86.0352-67.6758 80.3711-73.3398 70.8008-73.3398L25-73.3398C15.4297-73.3398 9.76562-67.6758 9.76562-58.1055L9.76562-12.3047C9.76562-2.73438 15.4297 2.92969 25 2.92969ZM27.2461-11.2305C25-11.2305 23.9258-12.1094 23.9258-14.5508L23.9258-55.8594C23.9258-58.3008 25-59.1797 27.2461-59.1797L68.5547-59.1797C70.8008-59.1797 71.875-58.3008 71.875-55.8594L71.875-14.5508C71.875-12.1094 70.8008-11.2305 68.5547-11.2305ZM47.9004-15.4785C48.7305-15.4785 49.3164-16.0645 49.3164-16.9922L49.3164-19.043C56.8359-19.5801 61.5723-23.584 61.5723-29.541C61.5723-34.8145 58.3496-37.5488 51.6602-38.9648L49.3164-39.4531L49.3164-43.8965C50.4395-43.6523 51.2207-43.0664 51.8066-42.2363C53.0273-40.4785 54.3945-39.6973 56.2988-39.6973C58.9355-39.6973 60.5469-41.1133 60.5469-43.2617C60.5469-43.8965 60.4004-44.5801 60.2051-45.166C59.082-48.2422 55.4688-51.0742 49.3164-51.5137L49.3164-53.7109C49.3164-54.6387 48.7305-55.2246 47.9004-55.2246C47.0703-55.2246 46.4844-54.6387 46.4844-53.7109L46.4844-51.5137C39.4043-51.1719 34.375-47.2656 34.375-41.2598C34.375-35.8398 37.8418-32.9102 44.1895-31.5918L46.4844-31.1035L46.4844-26.5625C44.9707-26.7578 44.0918-27.3926 43.6035-28.2715C42.627-29.9316 41.3086-30.957 39.2578-30.957C36.3281-30.957 34.7656-29.2969 34.7656-26.9043C34.7656-26.3184 34.8633-25.6348 35.2051-24.9023C36.3281-22.4121 39.5508-19.2871 46.4844-18.9941L46.4844-16.9922C46.4844-16.0645 47.0703-15.4785 47.9004-15.4785ZM46.4844-40.0879L46.2402-40.1367C44.7266-40.4297 43.8965-41.0645 43.8965-42.1387C43.8965-43.2617 44.9219-43.9941 46.4844-44.043ZM49.3164-30.5176L49.5605-30.4688C51.3184-30.127 52.0996-29.6387 52.0996-28.5156C52.0996-27.3438 51.0254-26.7578 49.3164-26.5625Z"/>
  </g>
  <g id="Heavy-S" transform="matrix(1 0 0 1 2589.4 696)">
   <path d="M24.3652 2.34375L70.2637 2.34375C79.541 2.34375 84.8145-2.97852 84.8145-12.207L84.8145-58.2031C84.8145-67.4316 79.541-72.7539 70.2637-72.7539L24.3652-72.7539C15.0879-72.7539 9.76562-67.4316 9.76562-58.2031L9.76562-12.207C9.76562-2.97852 15.0879 2.34375 24.3652 2.34375ZM26.0742-10.1562C23.5352-10.1562 22.2656-11.2793 22.2656-14.0137L22.2656-56.3965C22.2656-59.1309 23.5352-60.2539 26.0742-60.2539L68.5059-60.2539C71.0449-60.2539 72.3633-59.1309 72.3633-56.3965L72.3633-14.0137C72.3633-11.2793 71.0449-10.1562 68.5059-10.1562ZM47.3145-14.9414C48.1934-14.9414 48.877-15.5762 48.877-16.5527L48.877-18.75C55.957-19.2871 60.6934-23.1445 60.6934-29.1016C60.6934-34.4238 57.4219-37.2559 50.7324-38.623L48.877-39.0137L48.877-44.7754C50.293-44.4824 51.2695-43.7012 51.9043-42.4805C52.9297-40.8203 54.1992-40.0391 55.957-40.0391C58.3008-40.0391 59.8145-41.4062 59.8145-43.3594C59.8145-43.9453 59.668-44.5801 59.4727-45.1172C58.3984-48.4863 54.6875-51.2695 48.877-51.7578L48.877-54.0527C48.877-55.0781 48.1934-55.7129 47.3145-55.7129C46.3867-55.7129 45.752-55.0781 45.752-54.0527L45.752-51.7578C38.9648-51.3672 34.1309-47.5098 34.1309-41.6504C34.1309-36.3281 37.5977-33.3984 43.9453-32.0312L45.752-31.6406L45.752-25.6348C43.8477-25.9277 42.7734-26.8066 42.2363-28.0273C41.3574-29.5898 40.1367-30.5664 38.2812-30.5664C35.6934-30.5664 34.2773-29.0527 34.2773-26.8555C34.2773-26.3184 34.375-25.6836 34.668-25.0488C35.791-22.1191 39.2578-19.0918 45.752-18.7012L45.752-16.5527C45.752-15.5762 46.3867-14.9414 47.3145-14.9414ZM45.752-39.7461L45.5078-39.7949C43.6035-40.2344 42.6758-41.0645 42.6758-42.3828C42.6758-43.75 43.8477-44.7266 45.752-44.9219ZM48.877-30.957L49.2188-30.8594C51.3672-30.3711 52.1973-29.6387 52.1973-28.2715C52.1973-26.8066 51.0254-25.8789 48.877-25.6348Z"/>
  </g>
  <g id="Bold-S" transform="matrix(1 0 0 1 2293.35 696)">
   <path d="M23.6328 1.66016L69.6289 1.66016C78.6133 1.66016 83.4961-3.22266 83.4961-12.1094L83.4961-58.3008C83.4961-67.1875 78.6133-72.0703 69.6289-72.0703L23.6328-72.0703C14.6973-72.0703 9.76562-67.1875 9.76562-58.3008L9.76562-12.1094C9.76562-3.22266 14.6973 1.66016 23.6328 1.66016ZM24.8047-8.93555C21.9238-8.93555 20.3613-10.3516 20.3613-13.4277L20.3613-56.9824C20.3613-60.0586 21.9238-61.4746 24.8047-61.4746L68.457-61.4746C71.3379-61.4746 72.9004-60.0586 72.9004-56.9824L72.9004-13.4277C72.9004-10.3516 71.3379-8.93555 68.457-8.93555ZM46.6309-14.3555C47.6074-14.3555 48.3398-15.0391 48.3398-16.1133L48.3398-18.4082C55.0293-18.9941 59.7168-22.6562 59.7168-28.6621C59.7168-33.9844 56.3965-36.9629 49.6582-38.2324L48.3398-38.5254L48.3398-45.8008C50.0977-45.4102 51.3184-44.3848 52.002-42.7734C52.832-41.2598 53.9551-40.4785 55.5664-40.4785C57.6172-40.4785 58.9355-41.6992 58.9355-43.5059C58.9355-44.043 58.8379-44.5801 58.6914-45.0684C57.6172-48.7305 53.8574-51.5137 48.3398-52.0508L48.3398-54.4922C48.3398-55.5176 47.6074-56.25 46.6309-56.25C45.6543-56.25 44.9219-55.5176 44.9219-54.4922L44.9219-52.0508C38.4277-51.5137 33.8867-47.7539 33.8867-42.0898C33.8867-36.8652 37.3047-33.9355 43.7012-32.5195L44.9219-32.2266L44.9219-24.6094C42.5781-24.9512 41.3086-26.123 40.7227-27.7344C39.9902-29.248 38.8672-30.127 37.207-30.127C35.0098-30.127 33.7402-28.7598 33.7402-26.8066C33.7402-26.3184 33.8379-25.7812 34.0332-25.1953C35.1562-21.7773 38.9648-18.8477 44.9219-18.4082L44.9219-16.1133C44.9219-15.0391 45.6543-14.3555 46.6309-14.3555ZM44.9219-39.3555L44.6777-39.4043C42.3828-40.0391 41.3086-41.1133 41.3086-42.6758C41.3086-44.2871 42.627-45.5566 44.9219-45.8496ZM48.3398-31.4453L48.877-31.2988C51.416-30.6152 52.3438-29.6387 52.3438-27.9785C52.3438-26.1719 51.0254-24.9512 48.3398-24.6094Z"/>
  </g>
  <g id="Semibold-S" transform="matrix(1 0 0 1 1997.1 696)">
   <path d="M23.0957 1.17188L69.1895 1.17188C77.9297 1.17188 82.5684-3.36914 82.5684-12.0117L82.5684-58.3984C82.5684-67.041 77.9297-71.582 69.1895-71.582L23.0957-71.582C14.4043-71.582 9.76562-67.041 9.76562-58.3984L9.76562-12.0117C9.76562-3.36914 14.4043 1.17188 23.0957 1.17188ZM23.877-8.10547C20.752-8.10547 19.0918-9.7168 19.0918-12.9883L19.0918-57.4219C19.0918-60.6934 20.752-62.3047 23.877-62.3047L68.4082-62.3047C71.5332-62.3047 73.2422-60.6934 73.2422-57.4219L73.2422-12.9883C73.2422-9.7168 71.5332-8.10547 68.4082-8.10547ZM46.1914-13.916C47.2168-13.916 47.998-14.6484 47.998-15.7715L47.998-18.1641C54.3457-18.75 59.082-22.3633 59.082-28.3203C59.082-33.6426 55.6641-36.7188 48.9746-37.9883L47.998-38.1836L47.998-46.4844C49.9512-46.0449 51.3672-44.873 52.0996-42.9199C52.7832-41.5527 53.7598-40.7227 55.3223-40.7227C57.1289-40.7227 58.3496-41.8945 58.3496-43.5547C58.3496-44.0918 58.252-44.5312 58.1543-45.0195C57.0312-48.877 53.2227-51.709 47.998-52.2461L47.998-54.7852C47.998-55.8594 47.2168-56.5918 46.1914-56.5918C45.1172-56.5918 44.3359-55.8594 44.3359-54.7852L44.3359-52.2461C38.0859-51.6602 33.7402-47.9492 33.7402-42.3828C33.7402-37.2559 37.1094-34.2773 43.5059-32.8613L44.3359-32.666L44.3359-23.877C41.6992-24.3164 40.2832-25.6836 39.6484-27.5391C39.0137-29.0039 37.9883-29.7852 36.4746-29.7852C34.5703-29.7852 33.3496-28.5645 33.3496-26.8066C33.3496-26.3184 33.4473-25.8301 33.5938-25.293C34.7656-21.5332 38.7207-18.6523 44.3359-18.2129L44.3359-15.7715C44.3359-14.6484 45.1172-13.916 46.1914-13.916ZM44.3359-39.0625L44.0918-39.1602C41.5039-39.9414 40.332-41.1133 40.332-42.8711C40.332-44.6289 41.7969-46.0938 44.3359-46.5332ZM47.998-31.7383L48.6328-31.5918C51.4648-30.8105 52.4414-29.6387 52.4414-27.7832C52.4414-25.7324 51.0254-24.2676 47.998-23.877Z"/>
  </g>
  <g id="Medium-S" transform="matrix(1 0 0 1 1700.75 696)">
   <path d="M22.7051 0.830078L68.8965 0.830078C77.4414 0.830078 81.8359-3.51562 81.8359-11.9629L81.8359-58.4473C81.8359-66.8945 77.4414-71.2402 68.8965-71.2402L22.7051-71.2402C14.209-71.2402 9.76562-66.8945 9.76562-58.4473L9.76562-11.9629C9.76562-3.51562 14.209 0.830078 22.7051 0.830078ZM23.1934-7.4707C19.9219-7.4707 18.0664-9.22852 18.0664-12.6953L18.0664-57.7148C18.0664-61.1816 19.9219-62.9395 23.1934-62.9395L68.4082-62.9395C71.6797-62.9395 73.5352-61.1816 73.5352-57.7148L73.5352-12.6953C73.5352-9.22852 71.6797-7.4707 68.4082-7.4707ZM45.8008-13.623C46.875-13.623 47.7051-14.3555 47.7051-15.5273L47.7051-18.0176C53.8574-18.6035 58.5449-22.1191 58.5449-28.0762C58.5449-33.4473 55.127-36.5723 48.3887-37.7441L47.7051-37.8906L47.7051-47.0215C49.8535-46.5332 51.3672-45.2148 52.1484-43.0664C52.7344-41.748 53.6621-40.9668 55.127-40.9668C56.7871-40.9668 57.9102-42.041 57.9102-43.6523C57.9102-44.0918 57.8125-44.5312 57.7148-45.0195C56.6406-49.0234 52.7832-51.8066 47.7051-52.3926L47.7051-54.9805C47.7051-56.1035 46.875-56.8848 45.8008-56.8848C44.7266-56.8848 43.9453-56.1035 43.9453-54.9805L43.9453-52.3926C37.8418-51.7578 33.5938-48.0469 33.5938-42.627C33.5938-37.5 36.9629-34.5703 43.3594-33.1055L43.9453-32.959L43.9453-23.3398C41.0645-23.8281 39.502-25.3418 38.8672-27.3438C38.2812-28.8086 37.3047-29.541 35.9375-29.541C34.1797-29.541 33.0566-28.418 33.0566-26.7578C33.0566-26.3184 33.1543-25.8789 33.3008-25.3906C34.4238-21.3379 38.5742-18.5547 43.9453-18.0176L43.9453-15.5273C43.9453-14.3555 44.7266-13.623 45.8008-13.623ZM43.9453-38.8672L43.6523-38.9648C40.8691-39.8438 39.6484-41.1133 39.6484-43.0176C39.6484-44.9219 41.1621-46.5332 43.9453-47.0215ZM47.7051-31.9824L48.4375-31.8359C51.4648-30.957 52.4902-29.6387 52.4902-27.6367C52.4902-25.3906 51.0254-23.7793 47.7051-23.3398Z"/>
  </g>
  <g id="Regular-S" transform="matrix(1 0 0 1 1404.51 696)">
   <path d="M22.2168 0.390625L68.457 0.390625C76.8066 0.390625 80.9082-3.71094 80.9082-11.9141L80.9082-58.4961C80.9082-66.6992 76.8066-70.8008 68.457-70.8008L22.2168-70.8008C13.916-70.8008 9.76562-66.6992 9.76562-58.4961L9.76562-11.9141C9.76562-3.71094 13.916 0.390625 22.2168 0.390625ZM22.3145-6.68945C18.7988-6.68945 16.7969-8.54492 16.7969-12.2559L16.7969-58.1543C16.7969-61.8164 18.7988-63.7207 22.3145-63.7207L68.3594-63.7207C71.875-63.7207 73.877-61.8164 73.877-58.1543L73.877-12.2559C73.877-8.54492 71.875-6.68945 68.3594-6.68945ZM45.3613-13.1836C46.4844-13.1836 47.3633-14.0137 47.3633-15.1855L47.3633-17.7734C53.1738-18.4082 57.9102-21.7773 57.9102-27.7832C57.9102-33.1055 54.3945-36.377 47.7051-37.5L47.3633-37.5488L47.3633-47.7051C49.7559-47.168 51.416-45.7031 52.1973-43.2617C52.6855-42.041 53.4668-41.2109 54.834-41.2109C56.2988-41.2109 57.373-42.2363 57.373-43.75C57.373-44.1406 57.2754-44.5312 57.1777-44.9707C56.1035-49.2188 52.1973-52.002 47.3633-52.5879L47.3633-55.2734C47.3633-56.4453 46.4844-57.2266 45.3613-57.2266C44.2383-57.2266 43.3594-56.4453 43.3594-55.2734L43.3594-52.5879C37.5-51.9043 33.3984-48.2422 33.3984-42.9199C33.3984-37.8906 36.7676-34.9121 43.2129-33.3984L43.3594-33.3496L43.3594-22.6562C40.1855-23.1445 38.4766-24.8535 37.8418-27.1484C37.3047-28.5645 36.4258-29.248 35.2051-29.248C33.7402-29.248 32.666-28.2227 32.666-26.7578C32.666-26.3184 32.7637-25.9277 32.8613-25.4883C34.0332-21.0938 38.3301-18.4082 43.3594-17.8223L43.3594-15.1855C43.3594-14.0137 44.2383-13.1836 45.3613-13.1836ZM43.3594-38.623L43.0664-38.7207C39.9902-39.6973 38.7207-41.1133 38.7207-43.2129C38.7207-45.2637 40.3809-47.0703 43.3594-47.7051ZM47.3633-32.3242L48.1934-32.1289C51.5137-31.1523 52.5879-29.6387 52.5879-27.4414C52.5879-24.9512 50.9766-23.0957 47.3633-22.6562Z"/>
  </g>
  <g id="Light-S" transform="matrix(1 0 0 1 1108.46 696)">
   <path d="M21.3867-0.292969L67.9688-0.292969C75.7324-0.292969 79.5898-4.15039 79.5898-11.7676L79.5898-58.5938C79.5898-66.2109 75.7324-70.1172 67.9688-70.1172L21.3867-70.1172C13.6719-70.1172 9.76562-66.2598 9.76562-58.5938L9.76562-11.7676C9.76562-4.15039 13.6719-0.292969 21.3867-0.292969ZM21.4844-5.71289C17.4316-5.71289 15.1855-7.86133 15.1855-12.0605L15.1855-58.3008C15.1855-62.5 17.4316-64.6973 21.4844-64.6973L67.8711-64.6973C71.875-64.6973 74.1699-62.5 74.1699-58.3008L74.1699-12.0605C74.1699-7.86133 71.875-5.71289 67.8711-5.71289ZM44.6777-13.5742C45.6543-13.5742 46.3379-14.2578 46.3379-15.2344L46.3379-18.0176C52.3438-18.5547 56.8848-22.0215 56.8848-27.6367C56.8848-32.666 53.6133-35.7422 47.0215-36.9629L46.3379-37.1094L46.3379-48.1934C49.3652-47.7539 51.5137-45.9961 52.1973-43.2617C52.5391-42.2363 53.1738-41.5527 54.2969-41.5527C55.5176-41.5527 56.3477-42.3828 56.3477-43.6035C56.3477-43.9941 56.25-44.3359 56.1523-44.7266C55.2246-48.8281 51.3184-51.6602 46.3379-52.1973L46.3379-54.834C46.3379-55.8105 45.6543-56.4941 44.6777-56.4941C43.7012-56.4941 43.0176-55.8594 43.0176-54.834L43.0176-52.1973C37.3047-51.6113 33.1543-47.998 33.1543-42.9199C33.1543-38.1836 36.377-35.3027 42.6758-33.8379L43.0176-33.7402L43.0176-21.9238C39.3555-22.4121 37.1094-24.4629 36.5234-27.2461C36.1328-28.418 35.4492-29.0039 34.375-29.0039C33.2031-29.0039 32.373-28.1738 32.373-26.9531C32.373-26.5625 32.4707-26.2207 32.5684-25.8301C33.5938-21.3867 37.8418-18.5547 43.0176-18.0664L43.0176-15.2344C43.0176-14.209 43.75-13.5742 44.6777-13.5742ZM43.0176-37.9395L42.7734-38.0371C39.1113-39.1113 37.3535-40.625 37.3535-43.1152C37.3535-45.6543 39.5996-47.7051 43.0176-48.1934ZM46.3379-32.9102L47.168-32.7148C51.1719-31.6406 52.6855-29.9805 52.6855-27.3926C52.6855-24.5117 50.4883-22.3633 46.3379-21.9238Z"/>
  </g>
  <g id="Thin-S" transform="matrix(1 0 0 1 812.599 696)">
   <path d="M20.3125-1.12305L67.334-1.12305C74.2676-1.12305 77.8809-4.78516 77.8809-11.6211L77.8809-58.6914C77.8809-65.5762 74.2676-69.2383 67.334-69.2383L20.3125-69.2383C13.3789-69.2383 9.76562-65.625 9.76562-58.6914L9.76562-11.6211C9.76562-4.6875 13.3789-1.12305 20.3125-1.12305ZM20.4102-4.44336C15.625-4.44336 13.0859-6.93359 13.0859-11.8164L13.0859-58.5449C13.0859-63.3789 15.625-65.918 20.4102-65.918L67.2363-65.918C71.875-65.918 74.5605-63.3789 74.5605-58.5449L74.5605-11.8164C74.5605-6.93359 71.875-4.44336 67.2363-4.44336ZM43.7988-14.0625C44.4824-14.0625 45.0684-14.5508 45.0684-15.2344L45.0684-18.3105C51.2695-18.7012 55.6152-22.3633 55.6152-27.4414C55.6152-32.1289 52.5391-34.9121 46.0938-36.2793L45.0684-36.5234L45.0684-48.877C48.8281-48.5352 51.6113-46.3379 52.1973-43.3105C52.3926-42.4805 52.7832-41.9922 53.6133-41.9922C54.4434-41.9922 54.9805-42.5781 54.9805-43.4082C54.9805-43.75 54.9316-44.0918 54.8828-44.3848C54.0039-48.3398 50.0977-51.2695 45.0684-51.6113L45.0684-54.2969C45.0684-55.0293 44.4824-55.5176 43.7988-55.5176C43.0664-55.5176 42.5781-55.0293 42.5781-54.2969L42.5781-51.6113C37.0605-51.1719 32.7637-47.6562 32.7637-42.8711C32.7637-38.5742 35.8398-35.791 42.041-34.375L42.5781-34.2285L42.5781-21.0449C38.2812-21.4355 35.2539-23.877 34.7656-27.3438C34.6191-28.2227 34.1309-28.6621 33.3496-28.6621C32.5684-28.6621 31.9824-28.125 31.9824-27.1973C31.9824-26.9043 32.0801-26.5625 32.1289-26.2207C33.0566-21.8262 37.1582-18.7012 42.5781-18.3594L42.5781-15.2344C42.5781-14.502 43.1152-14.0625 43.7988-14.0625ZM42.5781-37.1094L42.3828-37.1582C37.8906-38.2812 35.5957-39.9902 35.5957-42.9688C35.5957-46.1426 38.623-48.4863 42.5781-48.877ZM45.0684-33.6426L45.8984-33.4473C50.6836-32.2754 52.7832-30.4688 52.7832-27.3926C52.7832-23.9258 49.8047-21.3379 45.0684-21.0449Z"/>
  </g>
  <g id="Ultralight-S" transform="matrix(1 0 0 1 516.352 696)">
   <path d="M19.7754-1.5625L66.9922-1.5625C73.5352-1.5625 76.9531-5.12695 76.9531-11.5234L76.9531-58.7891C76.9531-65.2344 73.5352-68.75 66.9922-68.75L19.7754-68.75C13.2324-68.75 9.76562-65.2832 9.76562-58.7891L9.76562-11.5234C9.76562-5.0293 13.2324-1.5625 19.7754-1.5625ZM19.873-3.75977C14.6484-3.75977 11.9629-6.44531 11.9629-11.6699L11.9629-58.6426C11.9629-63.8672 14.6484-66.5527 19.873-66.5527L66.8945-66.5527C71.875-66.5527 74.7559-63.8672 74.7559-58.6426L74.7559-11.6699C74.7559-6.44531 71.875-3.75977 66.8945-3.75977ZM43.3594-14.3066C43.8965-14.3066 44.3848-14.6973 44.3848-15.2832L44.3848-18.457C50.6836-18.8477 54.9316-22.5098 54.9316-27.3438C54.9316-31.7871 51.9531-34.4727 45.6543-35.9375L44.3848-36.1816L44.3848-49.2188C48.584-48.9258 51.6602-46.5332 52.1973-43.3105C52.2949-42.5781 52.5879-42.2363 53.2227-42.2363C53.8574-42.2363 54.2969-42.6758 54.2969-43.3105C54.2969-43.6523 54.248-43.9453 54.1992-44.2383C53.3691-48.0469 49.4629-51.0254 44.3848-51.3184L44.3848-54.0039C44.3848-54.5898 43.8965-54.9805 43.3594-54.9805C42.7246-54.9805 42.3828-54.6387 42.3828-54.0039L42.3828-51.3184C36.9141-50.9766 32.5684-47.5098 32.5684-42.8711C32.5684-38.7695 35.5957-36.084 41.6992-34.668L42.3828-34.5215L42.3828-20.5566C37.6953-20.8984 34.2773-23.584 33.8867-27.4414C33.7891-28.125 33.4961-28.5156 32.8125-28.5156C32.2266-28.5156 31.7871-28.0762 31.7871-27.3438C31.7871-27.0508 31.8848-26.7578 31.9336-26.4648C32.7637-22.0215 36.7676-18.8477 42.3828-18.5059L42.3828-15.2832C42.3828-14.6484 42.7734-14.3066 43.3594-14.3066ZM42.3828-36.6699L42.1875-36.7188C37.2559-37.8906 34.7168-39.6973 34.7168-42.8711C34.7168-46.3867 38.0859-48.9258 42.3828-49.2188ZM44.3848-34.0332L45.2148-33.8379C50.4883-32.6172 52.832-30.7129 52.832-27.3438C52.832-23.584 49.4141-20.8008 44.3848-20.5566Z"/>
  </g>
 </g>
</svg>
